<svg xmlns="http://www.w3.org/2000/svg" width="374.639" height="245.346" viewBox="0 0 374.639 245.346">
  <g id="company-logo-cta" transform="translate(-769.405 -283.699)">
    <path id="Combined_Shape" data-name="Combined Shape" d="M152.2,142.675l-.011-.006,0,.006L53.759,105.61,1.03,135.549l.011-.012-.019.012a.7.7,0,0,1-.933-.959l19.03-34.325a.79.79,0,0,1,.311-.321l15.6-9.112a.7.7,0,0,1,.97.946L24.076,113.369,54.148,96.314l77.689,29.307L107.713,81.694a.7.7,0,0,1,.972-.946l15.6,9.112a.8.8,0,0,1,.311.319l28.536,51.537a.7.7,0,0,1-.61,1.038A.69.69,0,0,1,152.2,142.675ZM23.427,93.577a.706.706,0,0,1-.13-.866L74.145.308a.575.575,0,0,1,1.019,0l45.114,81.87a.7.7,0,0,1-.97.946l-5.837-3.408-31.7-18.2L39.822,84.162a.844.844,0,0,1-.154.124L24.3,93.649a.7.7,0,0,1-.871-.073ZM74.195,22.063,46.628,71.92l34.757-19.7L96.6,61.261,75.2,22.063a.572.572,0,0,0-.5-.3A.566.566,0,0,0,74.195,22.063Z" transform="translate(880.051 283.699)" fill="#fff"/>
    <path id="Combined_Shape-2" data-name="Combined Shape" d="M246.095,19.558C246.095,7.881,255.052,0,266.617,0c10.2,0,15.194,5.782,17.461,11l-9.863,4.593a8.1,8.1,0,0,0-7.6-5.5c-5.216,0-8.9,4.195-8.9,9.467s3.685,9.448,8.9,9.448a8.1,8.1,0,0,0,7.6-5.494l9.863,4.534c-2.211,5.046-7.256,11.056-17.461,11.056h-.023C255.055,39.1,246.095,31.169,246.095,19.558ZM164.7,38.441,150.755,18.148V38.441H139.3V.646h11.792l13.153,19.048V.646H175.7v37.8Zm-56.424,0L94.331,18.148V38.441H82.88V.646H94.671l13.153,19.048V.646h11.452v37.8Zm83.338-.008L205.561.638h14.4l13.946,37.794-12.415,0-1.474-4.876H205.5l-1.474,4.876,0,0Zm16.838-14.4h8.617l-4.309-13.318Zm137.36,14.4,0-37.81H374.5v9.525H357.264v4.421H374.12v9.525H357.268v4.815H374.5v9.525Zm-44.258,0V.623h11.452V28.46h14.362v9.973Zm-290.108,0H0V.623H20.178A13.7,13.7,0,0,1,30.3,4.458a12.966,12.966,0,0,1,3.487,9.148,12.37,12.37,0,0,1-3.487,9C27.875,25.025,24.376,26.3,20.178,26.3h-8.73V38.432Zm0-21.652H18.7a3.319,3.319,0,1,0,0-6.632H11.448ZM51.415,38.418V.623H62.867v37.8Z" transform="translate(769.451 451.85)" fill="#fff"/>
    <path id="Combined_Shape-3" data-name="Combined Shape" d="M166.41,12.562a6.031,6.031,0,0,1-6.131-6.276A6.022,6.022,0,0,1,166.41.026a5.75,5.75,0,0,1,4.554,2.068l-.779.556A4.933,4.933,0,0,0,166.4.96a5.015,5.015,0,0,0-5.041,5.318A5.028,5.028,0,0,0,166.4,11.61a5.133,5.133,0,0,0,3.558-1.47v-2.9H165.4V6.312H171v4.237a6.108,6.108,0,0,1-4.532,2.013ZM83.8,10.583l.666-.752a4.914,4.914,0,0,0,3.778,1.757c2.488,0,3.195-1.376,3.195-2.413,0-1.7-1.615-2.177-3.319-2.645-1.891-.525-3.939-1.069-3.939-3.3C84.183,1.251,85.96,0,88.156,0a5.207,5.207,0,0,1,4.1,1.7l-.687.756A4.335,4.335,0,0,0,88.1.949c-1.615,0-2.832.926-2.832,2.234,0,1.431,1.512,1.848,3.157,2.267,1.961.559,4.1,1.179,4.1,3.628,0,1.561-1.036,3.428-4.3,3.428A5.558,5.558,0,0,1,83.8,10.583Zm282.292,1.742V.227h4.971c2.057,0,3.336,1.182,3.336,3.085a2.758,2.758,0,0,1-2.119,2.774,3.024,3.024,0,0,1,2.358,2.974,3.126,3.126,0,0,1-3.466,3.265Zm1.03-.941h3.885a2.292,2.292,0,0,0,2.54-2.4,2.361,2.361,0,0,0-2.54-2.393h-3.885Zm0-5.733h3.81a2.164,2.164,0,0,0,2.379-2.234,2.171,2.171,0,0,0-2.379-2.249h-3.81ZM331.1,9.35h-6.443l-1.217,2.974h-1.16L327.228.231h1.289l4.954,12.091-1.163,0Zm-6.114-.94h5.787l-2.9-7.181ZM283.53,12.325V.227h1.036V11.383h5.857v.941Zm-79.062,0V.231h1.052l7.585,10.3V.227h1.032V12.32h-1.013L205.5,1.894V12.325Zm-161.073,0V.227h7.673v.941H44.427V5.65h6.517v.945H44.427v4.788h6.641v.941Zm82.461,0V.227h1.035V12.32ZM0,12.32V.227H3.862A6.037,6.037,0,0,1,8.329,2.008,6.087,6.087,0,0,1,9.978,6.273a6.087,6.087,0,0,1-1.649,4.265A6.031,6.031,0,0,1,3.862,12.32Zm1.035-.948,2.827.011A4.914,4.914,0,0,0,7.573,9.9,5.247,5.247,0,0,0,8.89,6.286,4.8,4.8,0,0,0,3.862,1.168H1.035Z" transform="translate(769.405 516.482)" fill="#fff"/>
  </g>
</svg>
