<svg xmlns="http://www.w3.org/2000/svg" xmlns:xlink="http://www.w3.org/1999/xlink" width="40" height="19" viewBox="0 0 40 19">
  <defs>
    <clipPath id="clip-path">
      <rect id="Rectangle_65" data-name="Rectangle 65" width="40" height="19" transform="translate(926.328 3994.882)" fill="#e8e8e8"/>
    </clipPath>
  </defs>
  <g id="Mask_Group_12" data-name="Mask Group 12" transform="translate(-926.328 -3994.881)" clip-path="url(#clip-path)">
    <g id="ios-arrow-round-back" transform="translate(931.512 3994.5)">
      <path id="Path_221" data-name="Path 221" d="M31.168,29.547a1.345,1.345,0,0,1,.01,1.894l-6.248,6.268H48.738a1.338,1.338,0,0,1,0,2.676H24.931l6.258,6.268a1.355,1.355,0,0,1-.01,1.894,1.333,1.333,0,0,1-1.884-.01l-8.481-8.543a1.5,1.5,0,0,1-.278-.422,1.277,1.277,0,0,1-.1-.515,1.342,1.342,0,0,1,.381-.937L29.3,29.578a1.311,1.311,0,0,1,1.873-.031Z" transform="translate(-20.433 -29.169)" fill="#111"/>
    </g>
  </g>
</svg>
