<svg xmlns="http://www.w3.org/2000/svg" width="100.609" height="108.454" viewBox="0 0 100.609 108.454">
  <g id="noun_product_design_1849473" data-name="noun_product design_1849473" transform="translate(-7.4 -1.5)">
    <g id="Group_198" data-name="Group 198" transform="translate(7.4 1.5)">
      <g id="Group_189" data-name="Group 189">
        <path id="Path_171" data-name="Path 171" d="M108.009,59.708a49.759,49.759,0,0,0-8.775-28.4V11.28a.6.6,0,0,0-.6-.6H84.163a.6.6,0,0,0-.6.6V16.5A48.961,48.961,0,0,0,71.57,11.28L67.082,1.835a.683.683,0,0,0-.536-.335.8.8,0,0,0-.6.335C64.737,4.514,63.6,6.926,62.326,9.6q-2.311-.2-4.622-.2A50.466,50.466,0,0,0,20.6,25.748L17.247,22.4a.64.64,0,0,0-.67-.134.678.678,0,0,0-.4.6v8.507A49.241,49.241,0,0,0,7.4,59.708a49.759,49.759,0,0,0,8.775,28.4v7.1c0,.8.469.6,6.564.6a50.379,50.379,0,0,0,70,0h5.895a.6.6,0,0,0,.6-.6v-7.1A49.914,49.914,0,0,0,108.009,59.708Zm-1.206,0A48.879,48.879,0,0,1,99.234,85.9V33.518A48.711,48.711,0,0,1,106.8,59.708ZM24.548,95.879H90.861A49.027,49.027,0,0,1,24.548,95.879ZM83.493,17.911V88.578l-9.445-9.445c0-69.528.6-61.356-1.809-66.313A48.732,48.732,0,0,1,83.493,17.911ZM60.585,16.169l3.818-8.1h4.287l3.818,8.1a4.275,4.275,0,0,0-2.545,1.809,4.043,4.043,0,0,0-6.9,0A3.991,3.991,0,0,0,60.585,16.169Zm8.775,4.086V74.445l-5.627-5.627v-48.7A2.815,2.815,0,1,1,69.359,20.255ZM60.25,65.4V17.375c3.215.737,2.21,3.215,2.21,50.17C61.321,66.407,61.723,66.808,60.25,65.4ZM70.565,75.717c0-59.28-.268-56.132.536-57.2a3.022,3.022,0,0,1,1.675-1.139V77.861C70.9,75.985,71.3,76.454,70.565,75.717ZM66.546,3.576l1.541,3.282H65.005ZM57.7,10.61c1.34,0,2.679.067,4.086.2-.067.2-2.746,5.761-2.746,5.961V64.129L21.466,26.552A49.289,49.289,0,0,1,57.7,10.61ZM16.175,33.518V85.832A49.026,49.026,0,0,1,16.175,33.518Zm1.206,56.4c1.943,0,2.746.2,2.746-.6s-.8-.6-2.746-.6V82.549c1.943,0,2.746.2,2.746-.6s-.8-.6-2.746-.6V75.181h2.143a.6.6,0,0,0,0-1.206H17.38V67.813h2.143a.6.6,0,0,0,0-1.206H17.38V60.445h2.143a.6.6,0,0,0,0-1.206H17.38V53.077h2.143a.6.6,0,0,0,0-1.206H17.38V45.709h2.143a.6.6,0,0,0,0-1.206H17.38V38.341h2.143a.6.6,0,0,0,0-1.206H17.38V30.973h2.143a.6.6,0,0,0,0-1.206H17.38V24.408L87.713,94.74H17.38Zm80.648,4.689H89.521l-3.282-3.282h.268a.6.6,0,0,0,.6-.6c0-.8-.871-.6-2.143-.6l-.2-.2V85.564h1.742a.6.6,0,1,0,0-1.206H84.765V79.87h1.742a.6.6,0,1,0,0-1.206H84.765V74.177h1.742a.6.6,0,1,0,0-1.206H84.765V68.483h1.742a.6.6,0,0,0,0-1.206H84.765V62.789h1.742a.6.6,0,1,0,0-1.206H84.765V57.1h1.742a.6.6,0,1,0,0-1.206H84.765V51.4h1.742a.6.6,0,1,0,0-1.206H84.765V45.709h1.742a.6.6,0,1,0,0-1.206H84.765V40.015h1.742a.6.6,0,1,0,0-1.206H84.765V34.322h1.742a.6.6,0,1,0,0-1.206H84.765V28.628h1.742a.6.6,0,1,0,0-1.206H84.765V22.935h1.742a.6.6,0,1,0,0-1.206H84.765V11.882H98.028Z" transform="translate(-7.4 -1.5)" fill="#111"/>
      </g>
      <g id="Group_190" data-name="Group 190" transform="translate(32.554 97.527)">
        <path id="Path_172" data-name="Path 172" d="M72.344,147.7a.6.6,0,0,0-.6-.6H56.6a.6.6,0,1,0,0,1.206H71.674A.661.661,0,0,0,72.344,147.7Z" transform="translate(-56 -147.1)" fill="#111"/>
      </g>
      <g id="Group_191" data-name="Group 191" transform="translate(50.036 97.527)">
        <path id="Path_173" data-name="Path 173" d="M85.851,147.7a.6.6,0,0,0-.6-.6H82.7a.6.6,0,1,0,0,1.206h2.478A.661.661,0,0,0,85.851,147.7Z" transform="translate(-82.1 -147.1)" fill="#111"/>
      </g>
      <g id="Group_192" data-name="Group 192" transform="translate(54.658 97.527)">
        <path id="Path_174" data-name="Path 174" d="M89.6,148.306H91.21a.6.6,0,0,0,0-1.206H89.6a.6.6,0,0,0,0,1.206Z" transform="translate(-89 -147.1)" fill="#111"/>
      </g>
      <g id="Group_193" data-name="Group 193" transform="translate(51.778 100.542)">
        <path id="Path_175" data-name="Path 175" d="M100.307,151.6h-15a.6.6,0,0,0,0,1.206h15a.6.6,0,0,0,.6-.6C100.977,151.868,100.709,151.6,100.307,151.6Z" transform="translate(-84.7 -151.6)" fill="#111"/>
      </g>
      <g id="Group_194" data-name="Group 194" transform="translate(46.888 100.542)">
        <path id="Path_176" data-name="Path 176" d="M80.481,151.6H78a.6.6,0,1,0,0,1.206h2.478a.6.6,0,1,0,0-1.206Z" transform="translate(-77.4 -151.6)" fill="#111"/>
      </g>
      <g id="Group_195" data-name="Group 195" transform="translate(43.137 100.542)">
        <path id="Path_177" data-name="Path 177" d="M74.01,151.6H72.4a.6.6,0,0,0,0,1.206H74.01a.6.6,0,0,0,0-1.206Z" transform="translate(-71.8 -151.6)" fill="#111"/>
      </g>
      <g id="Group_196" data-name="Group 196" transform="translate(81.516 13.397)">
        <path id="Path_178" data-name="Path 178" d="M131.577,26.457a2.478,2.478,0,1,0-2.478-2.478A2.431,2.431,0,0,0,131.577,26.457Zm0-3.751a1.273,1.273,0,1,1-1.273,1.273A1.232,1.232,0,0,1,131.577,22.706Z" transform="translate(-129.096 -21.5)" fill="#111"/>
      </g>
      <g id="Group_197" data-name="Group 197" transform="translate(19.492 46.647)">
        <path id="Path_179" data-name="Path 179" d="M37.17,108.088h35.7a.633.633,0,0,0,.469-1.072l-35.769-35.7a.64.64,0,0,0-.67-.134.678.678,0,0,0-.4.6v35.7A.712.712,0,0,0,37.17,108.088Zm.6-34.831L71.4,106.882H37.773Z" transform="translate(-36.5 -71.14)" fill="#111"/>
      </g>
    </g>
  </g>
</svg>
