<svg xmlns="http://www.w3.org/2000/svg" width="100" height="100" viewBox="0 0 100 100">
  <g id="noun_web_design_1849456" data-name="noun_web design_1849456" transform="translate(-1.5 -1.5)">
    <g id="Group_188" data-name="Group 188" transform="translate(1.5 1.5)">
      <g id="Group_163" data-name="Group 163" transform="translate(32.416 89.09)">
        <path id="Path_146" data-name="Path 146" d="M54.616,147.033H69.533a.616.616,0,1,0,0-1.233H54.616a.582.582,0,0,0-.616.616A.618.618,0,0,0,54.616,147.033Z" transform="translate(-54 -145.8)" fill="#111"/>
      </g>
      <g id="Group_164" data-name="Group 164" transform="translate(49.756 89.09)">
        <path id="Path_147" data-name="Path 147" d="M82.716,147.033h2.466a.616.616,0,0,0,0-1.233H82.716a.582.582,0,0,0-.616.616A.618.618,0,0,0,82.716,147.033Z" transform="translate(-82.1 -145.8)" fill="#111"/>
      </g>
      <g id="Group_165" data-name="Group 165" transform="translate(54.323 89.09)">
        <path id="Path_148" data-name="Path 148" d="M90.116,147.033h1.6a.616.616,0,1,0,0-1.233h-1.6a.582.582,0,0,0-.616.616A.618.618,0,0,0,90.116,147.033Z" transform="translate(-89.5 -145.8)" fill="#111"/>
      </g>
      <g id="Group_166" data-name="Group 166" transform="translate(51.434 92.11)">
        <path id="Path_149" data-name="Path 149" d="M84.8,151.316a.582.582,0,0,0,.616.616h14.917a.616.616,0,1,0,0-1.233H85.416A.618.618,0,0,0,84.8,151.316Z" transform="translate(-84.8 -150.7)" fill="#111"/>
      </g>
      <g id="Group_167" data-name="Group 167" transform="translate(46.546 92.11)">
        <path id="Path_150" data-name="Path 150" d="M76.9,151.316a.582.582,0,0,0,.616.616h2.466a.616.616,0,1,0,0-1.233H77.516A.618.618,0,0,0,76.9,151.316Z" transform="translate(-76.9 -150.7)" fill="#111"/>
      </g>
      <g id="Group_168" data-name="Group 168" transform="translate(42.841 92.11)">
        <path id="Path_151" data-name="Path 151" d="M73.119,150.7h-1.6a.616.616,0,1,0,0,1.233h1.6a.616.616,0,1,0,0-1.233Z" transform="translate(-70.9 -150.7)" fill="#111"/>
      </g>
      <g id="Group_169" data-name="Group 169">
        <path id="Path_152" data-name="Path 152" d="M98.1,79.031H93.228A49.4,49.4,0,0,0,101.5,51.5a50,50,0,1,0-100,0A49.4,49.4,0,0,0,9.772,79.031H4.9a.583.583,0,0,0-.617.617,7.785,7.785,0,0,0,7.778,7.778h4.691A49.874,49.874,0,0,0,51.5,101.5h0A49.762,49.762,0,0,0,86.253,87.426h4.691a7.785,7.785,0,0,0,7.778-7.778A.619.619,0,0,0,98.1,79.031ZM2.735,51.5A48.765,48.765,0,1,1,91.747,79.031h-.926V29.34a3.846,3.846,0,0,0-3.827-3.827H76.562V13.352a3.715,3.715,0,0,0-3.7-3.7H30.08a3.715,3.715,0,0,0-3.7,3.7v12.16H16.006a3.846,3.846,0,0,0-3.827,3.827V79.031h-.926A48.527,48.527,0,0,1,2.735,51.5Zm23.7,21.79H19.216V32.549h7.222ZM76.562,32.549h7.222V73.228H76.562ZM75.327,18.29H27.673V13.414a2.476,2.476,0,0,1,2.469-2.469H72.92a2.476,2.476,0,0,1,2.469,2.469V18.29Zm0,1.235V73.29H27.673V31.932h0v-5.8h0v-6.6ZM26.438,31.315H18.6a.583.583,0,0,0-.617.617V73.846a.583.583,0,0,0,.617.617H84.4a.583.583,0,0,0,.617-.617V31.932a.583.583,0,0,0-.617-.617h-7.84V26.747H86.994a2.608,2.608,0,0,1,2.593,2.593V79.031H13.414V29.34a2.608,2.608,0,0,1,2.593-2.593H26.438ZM51.5,100.265h0a48.593,48.593,0,0,1-32.963-12.84H84.463A48.858,48.858,0,0,1,51.5,100.265ZM90.944,86.191H12.056a6.511,6.511,0,0,1-6.481-5.926H97.488A6.57,6.57,0,0,1,90.944,86.191Z" transform="translate(-1.5 -1.5)" fill="#111"/>
      </g>
      <g id="Group_170" data-name="Group 170" transform="translate(33.295 20.681)">
        <path id="Path_153" data-name="Path 153" d="M57.989,40.178H86.22a2.589,2.589,0,0,0,0-5.178H57.989a2.589,2.589,0,1,0,0,5.178ZM86.22,36.233a1.356,1.356,0,0,1,0,2.712H83.508a1.356,1.356,0,0,1,0-2.712Zm-28.231,0H81.351a2.671,2.671,0,0,0,0,2.712H57.989a1.356,1.356,0,1,1,0-2.712Z" transform="translate(-55.4 -35)" fill="#111"/>
      </g>
      <g id="Group_171" data-name="Group 171" transform="translate(64.697 61.116)">
        <path id="Path_154" data-name="Path 154" d="M108.951,100.5a2.651,2.651,0,1,0,2.651,2.651A2.67,2.67,0,0,0,108.951,100.5Zm0,4.068a1.418,1.418,0,1,1,1.418-1.418A1.434,1.434,0,0,1,108.951,104.568Z" transform="translate(-106.3 -100.5)" fill="#111"/>
      </g>
      <g id="Group_172" data-name="Group 172" transform="translate(58.4 61.116)">
        <path id="Path_155" data-name="Path 155" d="M98.751,100.5a2.651,2.651,0,1,0,2.651,2.651A2.631,2.631,0,0,0,98.751,100.5Zm0,4.068a1.418,1.418,0,1,1,1.418-1.418A1.395,1.395,0,0,1,98.751,104.568Z" transform="translate(-96.1 -100.5)" fill="#111"/>
      </g>
      <g id="Group_173" data-name="Group 173" transform="translate(52.103 61.116)">
        <path id="Path_156" data-name="Path 156" d="M88.551,100.5a2.651,2.651,0,1,0,2.651,2.651A2.631,2.631,0,0,0,88.551,100.5Zm0,4.068a1.418,1.418,0,1,1,1.418-1.418A1.395,1.395,0,0,1,88.551,104.568Z" transform="translate(-85.9 -100.5)" fill="#111"/>
      </g>
      <g id="Group_174" data-name="Group 174" transform="translate(27.656 11.034)">
        <path id="Path_157" data-name="Path 157" d="M48.334,19.4a2.034,2.034,0,1,0,2.034,2.034A2.052,2.052,0,0,0,48.334,19.4Zm0,2.9a.8.8,0,1,1,.8-.8A.816.816,0,0,1,48.334,22.3Z" transform="translate(-46.3 -19.4)" fill="#111"/>
      </g>
      <g id="Group_175" data-name="Group 175" transform="translate(32.78 11.034)">
        <path id="Path_158" data-name="Path 158" d="M56.634,19.4a2.034,2.034,0,1,0,2.034,2.034A2.052,2.052,0,0,0,56.634,19.4Zm0,2.9a.8.8,0,1,1,.8-.8A.816.816,0,0,1,56.634,22.3Z" transform="translate(-54.6 -19.4)" fill="#111"/>
      </g>
      <g id="Group_176" data-name="Group 176" transform="translate(37.904 11.034)">
        <path id="Path_159" data-name="Path 159" d="M64.934,19.4a2.034,2.034,0,1,0,2.034,2.034A2.052,2.052,0,0,0,64.934,19.4Zm0,2.9a.8.8,0,1,1,.8-.8A.816.816,0,0,1,64.934,22.3Z" transform="translate(-62.9 -19.4)" fill="#111"/>
      </g>
      <g id="Group_177" data-name="Group 177" transform="translate(44.037 11.034)">
        <path id="Path_160" data-name="Path 160" d="M99.059,19.4H74.834a2.034,2.034,0,1,0,0,4.068H99.059a2.052,2.052,0,0,0,2.034-2.034A1.975,1.975,0,0,0,99.059,19.4Zm0,2.9H74.834a.8.8,0,0,1,0-1.6H99.059a.816.816,0,0,1,.8.8A.777.777,0,0,1,99.059,22.3Z" transform="translate(-72.8 -19.4)" fill="#111"/>
      </g>
      <g id="Group_178" data-name="Group 178" transform="translate(29.636 67.841)">
        <path id="Path_161" data-name="Path 161" d="M50.116,112.633H62.444a.616.616,0,1,0,0-1.233H50.116a.616.616,0,1,0,0,1.233Z" transform="translate(-49.5 -111.4)" fill="#111"/>
      </g>
      <g id="Group_179" data-name="Group 179" transform="translate(29.634 65.495)">
        <path id="Path_162" data-name="Path 162" d="M50.116,108.833h9.061a.616.616,0,1,0,0-1.233H50.116a.616.616,0,1,0,0,1.233Z" transform="translate(-49.5 -107.6)" fill="#111"/>
      </g>
      <g id="Group_180" data-name="Group 180" transform="translate(29.636 63.211)">
        <path id="Path_163" data-name="Path 163" d="M50.116,105.133H62.444a.616.616,0,0,0,0-1.233H50.116a.582.582,0,0,0-.616.616A.618.618,0,0,0,50.116,105.133Z" transform="translate(-49.5 -103.9)" fill="#111"/>
      </g>
      <g id="Group_181" data-name="Group 181" transform="translate(29.634 60.865)">
        <path id="Path_164" data-name="Path 164" d="M50.116,101.333h9.061a.616.616,0,1,0,0-1.233H50.116a.582.582,0,0,0-.616.616A.618.618,0,0,0,50.116,101.333Z" transform="translate(-49.5 -100.1)" fill="#111"/>
      </g>
      <g id="Group_182" data-name="Group 182" transform="translate(29.825 33.155)">
        <path id="Path_165" data-name="Path 165" d="M50.416,67.96h2.219a.582.582,0,0,0,.616-.616V66.85H64.9v.493a.582.582,0,0,0,.616.616H67.8a.582.582,0,0,0,.616-.616V65.124a.582.582,0,0,0-.616-.616h-.493V58.652H67.8a.582.582,0,0,0,.616-.616V55.816A.582.582,0,0,0,67.8,55.2H65.58a.582.582,0,0,0-.616.616v.493H53.252v-.493a.582.582,0,0,0-.616-.616H50.416a.582.582,0,0,0-.616.616v2.219a.582.582,0,0,0,.616.616h.493v5.856h-.493a.582.582,0,0,0-.616.616v2.219A.618.618,0,0,0,50.416,67.96Zm1.6-1.233h-.986v-.986h.986v.986Zm15.164,0H66.2v-.986h.986ZM66.135,56.371h1.048v.986H66.2v-.986Zm-15.1,0h.986v.986h-.986Zm1.11,2.281h.493a.582.582,0,0,0,.616-.616v-.493H64.9v.493a.582.582,0,0,0,.616.616h.493v5.856h-.493a.582.582,0,0,0-.616.616v.493H53.252v-.493a.582.582,0,0,0-.616-.616h-.493V58.652Z" transform="translate(-49.8 -55.2)" fill="#111"/>
      </g>
      <g id="Group_183" data-name="Group 183" transform="translate(33.216 48.149)">
        <path id="Path_166" data-name="Path 166" d="M66.457,79.5H55.916a.616.616,0,1,0,0,1.233H66.457a.582.582,0,0,0,.616-.616A.618.618,0,0,0,66.457,79.5Z" transform="translate(-55.3 -79.5)" fill="#111"/>
      </g>
      <g id="Group_184" data-name="Group 184" transform="translate(34.82 51.05)">
        <path id="Path_167" data-name="Path 167" d="M65.913,84.2h-7.4a.616.616,0,1,0,0,1.233h7.4a.582.582,0,0,0,.616-.616A.663.663,0,0,0,65.913,84.2Z" transform="translate(-57.9 -84.2)" fill="#111"/>
      </g>
      <g id="Group_185" data-name="Group 185" transform="translate(51.56 33.093)">
        <path id="Path_168" data-name="Path 168" d="M100.164,56.21H88.514v-.493A.582.582,0,0,0,87.9,55.1H85.616a.582.582,0,0,0-.616.616v2.219a.582.582,0,0,0,.616.616h.493v5.856h-.493a.582.582,0,0,0-.616.616v2.219a.582.582,0,0,0,.616.616h2.219a.582.582,0,0,0,.616-.616V66.75H100.1v.493a.582.582,0,0,0,.616.616h2.219a.582.582,0,0,0,.616-.616V65.024a.582.582,0,0,0-.616-.616h-.493V58.552h.493a.582.582,0,0,0,.616-.616V55.716a.582.582,0,0,0-.616-.616h-2.219a.582.582,0,0,0-.616.616v.493Zm-13.931.123h.986v.986h-.986Zm1.048,10.356H86.233V65.7h.986v.986Zm15.1,0H101.4V65.7h.986v.986Zm-1.11-2.281h-.493a.582.582,0,0,0-.616.616v.493H88.514v-.493a.582.582,0,0,0-.616-.616H87.4V58.552H87.9a.582.582,0,0,0,.616-.616v-.493h11.65v.493a.582.582,0,0,0,.616.616h.493Zm.123-8.075h.986v.986H101.4v-.986Z" transform="translate(-85 -55.1)" fill="#111"/>
      </g>
      <g id="Group_186" data-name="Group 186" transform="translate(55.01 48.149)">
        <path id="Path_169" data-name="Path 169" d="M101.757,80.733a.616.616,0,1,0,0-1.233H91.216a.616.616,0,1,0,0,1.233Z" transform="translate(-90.6 -79.5)" fill="#111"/>
      </g>
      <g id="Group_187" data-name="Group 187" transform="translate(56.551 51.05)">
        <path id="Path_170" data-name="Path 170" d="M101.73,84.816a.582.582,0,0,0-.616-.616h-7.4a.616.616,0,0,0,0,1.233h7.4A.582.582,0,0,0,101.73,84.816Z" transform="translate(-93.1 -84.2)" fill="#111"/>
      </g>
    </g>
  </g>
</svg>
