<svg id="noun_app_development_1849603" data-name="noun_app development_1849603" xmlns="http://www.w3.org/2000/svg" width="100" height="100.033" viewBox="0 0 100 100.033">
  <g id="Group_86" data-name="Group 86">
    <g id="Group_85" data-name="Group 85">
      <g id="Group_63" data-name="Group 63">
        <path id="Path_51" data-name="Path 51" d="M101.5,51.5A50.019,50.019,0,0,0,21.068,11.809H7.8a.583.583,0,0,0-.617.617V22.3a.583.583,0,0,0,.617.617h2.654A50.007,50.007,0,0,0,16.5,87.179c0,.062.062.062.062.123a49.87,49.87,0,0,0,36.79,14.2h.432a49.689,49.689,0,0,0,36.3-18.21h4.877a.583.583,0,0,0,.617-.617V75.019A49.621,49.621,0,0,0,101.5,51.5ZM68.352,86.191h-33.7A3.182,3.182,0,0,1,31.5,83.537a1.709,1.709,0,0,1-.062-.556v-60H61.994a.583.583,0,0,0,.617-.617v-2.84h5.8a3.188,3.188,0,0,1,3.21,3.21V38.414H69.154V25.142a.713.713,0,0,0-.741-.741H34.648a.713.713,0,0,0-.741.741V78.66a.713.713,0,0,0,.741.741H60.327v3.272a.583.583,0,0,0,.617.617H71.562A3.177,3.177,0,0,1,68.352,86.191ZM55.574,100.08c-.556.062-1.173.062-1.79.123h-.432A48.766,48.766,0,0,1,18.6,87.426H84.463A48.683,48.683,0,0,1,55.574,100.08Zm-32.1-32.84a7.1,7.1,0,0,1,1.975-5,6.757,6.757,0,0,1,4.691-2.1V74.216A7.169,7.169,0,0,1,23.475,67.241Zm-4.2,6.481a13.15,13.15,0,0,1-1.3-3.025.61.61,0,0,0-.432-.432l-2.963-.988-.062-4.012,2.9-1.049a.653.653,0,0,0,.37-.432,10.765,10.765,0,0,1,1.235-3.025.463.463,0,0,0,0-.556l-1.42-2.778,2.778-2.9,2.84,1.358a.851.851,0,0,0,.556,0,13.15,13.15,0,0,1,3.025-1.3.653.653,0,0,0,.432-.37l1.111-3.025H30.2v7.654a8.232,8.232,0,0,0-7.9,8.4,8.3,8.3,0,0,0,7.9,8.148v7.654h-1.42L27.735,80.08a.653.653,0,0,0-.432-.37,10.765,10.765,0,0,1-3.025-1.235.8.8,0,0,0-.617,0L20.883,79.9l-2.9-2.778,1.358-2.84A.615.615,0,0,0,19.278,73.722ZM60.944,38.414a.583.583,0,0,0-.617.617V62.549h-3.21a3.425,3.425,0,0,0-3.4,3.4V72.92a3.425,3.425,0,0,0,3.4,3.4h3.21v1.852H35.142V25.636H67.858V38.414ZM60.327,75.08h-3.21a2.187,2.187,0,0,1-2.16-2.16V65.944a2.187,2.187,0,0,1,2.16-2.16h3.21Zm1.235-35.432H94.4V73.969H61.562ZM51.5,2.735A48.767,48.767,0,0,1,95.636,72.241V39.031a.583.583,0,0,0-.617-.617H72.8V22.735a4.426,4.426,0,0,0-4.444-4.444h-5.8V12.426a.583.583,0,0,0-.617-.617H23.167A48.268,48.268,0,0,1,51.5,2.735ZM8.414,13.043H61.377v5.864h0v2.778H8.414ZM2.735,51.5a48.653,48.653,0,0,1,9.2-28.519H30.2V49.957H27.858a.593.593,0,0,0-.556.432l-.988,3.086A15.037,15.037,0,0,0,23.6,54.648L20.7,53.29a.563.563,0,0,0-.679.123l-3.4,3.519a.578.578,0,0,0-.123.679l1.481,2.9a20.881,20.881,0,0,0-1.111,2.716L13.846,64.34a.613.613,0,0,0-.432.617l.062,4.877a.593.593,0,0,0,.432.556l3.086.988a15.038,15.038,0,0,0,1.173,2.716l-1.358,2.9a.563.563,0,0,0,.123.679l3.519,3.4a.656.656,0,0,0,.741.123l2.9-1.481a20.882,20.882,0,0,0,2.716,1.111l.926,3.086a.593.593,0,0,0,.556.432h2.037A4.354,4.354,0,0,0,31.5,86.253H17.3A48.634,48.634,0,0,1,2.735,51.5ZM85.759,86.191H71.438A4.308,4.308,0,0,0,72.8,83.228H88.475C87.611,84.278,86.685,85.265,85.759,86.191Zm-13.519-4.2H61.562V75.2H94.4v6.79Z" transform="translate(-1.5 -1.5)" fill="#111"/>
      </g>
      <g id="Group_64" data-name="Group 64" transform="translate(32.407 89.074)">
        <path id="Path_52" data-name="Path 52" d="M70.173,146.417a.583.583,0,0,0-.617-.617H54.617a.617.617,0,1,0,0,1.235H69.556A.664.664,0,0,0,70.173,146.417Z" transform="translate(-54 -145.8)" fill="#111"/>
      </g>
      <g id="Group_65" data-name="Group 65" transform="translate(49.753 89.074)">
        <path id="Path_53" data-name="Path 53" d="M85.8,146.417a.583.583,0,0,0-.617-.617H82.717a.617.617,0,0,0,0,1.235h2.469A.664.664,0,0,0,85.8,146.417Z" transform="translate(-82.1 -145.8)" fill="#111"/>
      </g>
      <g id="Group_66" data-name="Group 66" transform="translate(54.321 89.074)">
        <path id="Path_54" data-name="Path 54" d="M90.117,147.035h1.6a.617.617,0,1,0,0-1.235h-1.6a.583.583,0,0,0-.617.617A.619.619,0,0,0,90.117,147.035Z" transform="translate(-89.5 -145.8)" fill="#111"/>
      </g>
      <g id="Group_67" data-name="Group 67" transform="translate(51.42 92.099)">
        <path id="Path_55" data-name="Path 55" d="M84.8,151.317a.583.583,0,0,0,.617.617h14.938a.617.617,0,0,0,0-1.235H85.417A.619.619,0,0,0,84.8,151.317Z" transform="translate(-84.8 -150.7)" fill="#111"/>
      </g>
      <g id="Group_68" data-name="Group 68" transform="translate(46.543 92.099)">
        <path id="Path_56" data-name="Path 56" d="M79.986,150.7H77.517a.617.617,0,1,0,0,1.235h2.469a.617.617,0,1,0,0-1.235Z" transform="translate(-76.9 -150.7)" fill="#111"/>
      </g>
      <g id="Group_69" data-name="Group 69" transform="translate(42.84 92.099)">
        <path id="Path_57" data-name="Path 57" d="M73.122,150.7h-1.6a.617.617,0,1,0,0,1.235h1.6a.617.617,0,1,0,0-1.235Z" transform="translate(-70.9 -150.7)" fill="#111"/>
      </g>
      <g id="Group_70" data-name="Group 70" transform="translate(49.337 48.181)">
        <path id="Path_58" data-name="Path 58" d="M81.657,79.706a.664.664,0,0,0-.123.864,2.937,2.937,0,0,1,.432,2.037.617.617,0,0,0,1.235,0,4.2,4.2,0,0,0-.679-2.778A.559.559,0,0,0,81.657,79.706Z" transform="translate(-81.426 -79.553)" fill="#111"/>
      </g>
      <g id="Group_71" data-name="Group 71" transform="translate(49.877 53.086)">
        <path id="Path_59" data-name="Path 59" d="M82.917,87.5a.583.583,0,0,0-.617.617v2.531a.617.617,0,0,0,1.235,0V88.117A.619.619,0,0,0,82.917,87.5Z" transform="translate(-82.3 -87.5)" fill="#111"/>
      </g>
      <g id="Group_72" data-name="Group 72" transform="translate(47.707 58.1)">
        <path id="Path_60" data-name="Path 60" d="M81.572,95.67a.65.65,0,0,0-.8.247,2.164,2.164,0,0,1-1.481,1.173.64.64,0,0,0-.494.741c.247,1.235,2.469-.062,3.086-1.358A.613.613,0,0,0,81.572,95.67Z" transform="translate(-78.785 -95.622)" fill="#111"/>
      </g>
      <g id="Group_73" data-name="Group 73" transform="translate(44.63 47.099)">
        <path id="Path_61" data-name="Path 61" d="M76.948,79.035a.583.583,0,0,0,.617-.617.619.619,0,0,0-.617-.617H74.417a.617.617,0,1,0,0,1.235Z" transform="translate(-73.8 -77.8)" fill="#111"/>
      </g>
      <g id="Group_74" data-name="Group 74" transform="translate(42.654 59.63)">
        <path id="Path_62" data-name="Path 62" d="M73.748,98.1H71.217a.617.617,0,0,0,0,1.235h2.531a.583.583,0,0,0,.617-.617A.619.619,0,0,0,73.748,98.1Z" transform="translate(-70.6 -98.1)" fill="#111"/>
      </g>
      <g id="Group_75" data-name="Group 75" transform="translate(37.979 58.534)">
        <path id="Path_63" data-name="Path 63" d="M65.788,97.421a1.968,1.968,0,0,1-1.667-.864.617.617,0,0,0-.988.741,3.364,3.364,0,0,0,2.654,1.3h0a.619.619,0,0,0,.617-.617A.57.57,0,0,0,65.788,97.421Z" transform="translate(-63.026 -96.326)" fill="#111"/>
      </g>
      <g id="Group_76" data-name="Group 76" transform="translate(37.404 48.656)">
        <path id="Path_64" data-name="Path 64" d="M62.715,84.013a.583.583,0,0,0,.617-.617,4.575,4.575,0,0,1,.247-2.222.608.608,0,1,0-1.111-.494A5.292,5.292,0,0,0,62.1,83.4.583.583,0,0,0,62.715,84.013Z" transform="translate(-62.095 -80.323)" fill="#111"/>
      </g>
      <g id="Group_77" data-name="Group 77" transform="translate(37.407 53.642)">
        <path id="Path_65" data-name="Path 65" d="M63.335,91.548V89.017a.617.617,0,0,0-1.235,0v2.531a.583.583,0,0,0,.617.617A.619.619,0,0,0,63.335,91.548Z" transform="translate(-62.1 -88.4)" fill="#111"/>
      </g>
      <g id="Group_78" data-name="Group 78" transform="translate(39.558 47.083)">
        <path id="Path_66" data-name="Path 66" d="M66.211,79.087h.123c.37-.062,1.975-.062,2.407-.062a.617.617,0,1,0,0-1.235,13.613,13.613,0,0,0-2.654.062.64.64,0,0,0-.494.741A.65.65,0,0,0,66.211,79.087Z" transform="translate(-65.585 -77.775)" fill="#111"/>
      </g>
      <g id="Group_79" data-name="Group 79" transform="translate(45.617 79.074)">
        <path id="Path_67" data-name="Path 67" d="M82.067,129.6H77.56a2.16,2.16,0,1,0,0,4.321h4.506a2.16,2.16,0,1,0,0-4.321Zm0,3.086H77.56a.926.926,0,0,1,0-1.852h4.506a.949.949,0,0,1,.926.926A.909.909,0,0,1,82.067,132.686Z" transform="translate(-75.4 -129.6)" fill="#111"/>
      </g>
      <g id="Group_80" data-name="Group 80" transform="translate(72.346 50.062)">
        <path id="Path_68" data-name="Path 68" d="M127.712,86.736l-6.852-3.951a1.644,1.644,0,0,0-.741-.185,1.4,1.4,0,0,0-1.42,1.42v7.9a1.4,1.4,0,0,0,1.42,1.42,1.644,1.644,0,0,0,.741-.185l6.852-3.951a1.4,1.4,0,0,0,0-2.469Zm-.617,1.42-6.852,3.951a.208.208,0,0,1-.309-.185v-7.9a.2.2,0,0,1,.185-.185h.123l6.852,3.951c.062.062.123.123.123.185S127.219,88.094,127.1,88.156Z" transform="translate(-118.7 -82.6)" fill="#111"/>
      </g>
      <g id="Group_81" data-name="Group 81" transform="translate(66.481 45.432)">
        <path id="Path_69" data-name="Path 69" d="M119.2,75.1a10,10,0,1,0,10,10A10,10,0,0,0,119.2,75.1Zm0,18.827a8.765,8.765,0,1,1,8.765-8.765A8.759,8.759,0,0,1,119.2,93.927Z" transform="translate(-109.2 -75.1)" fill="#111"/>
      </g>
      <g id="Group_82" data-name="Group 82" transform="translate(8.086 13.148)">
        <path id="Path_70" data-name="Path 70" d="M23.489,22.8H15.217a.583.583,0,0,0-.617.617v4.321a.583.583,0,0,0,.617.617h8.272a.583.583,0,0,0,.617-.617V23.417A.583.583,0,0,0,23.489,22.8Zm-.617,4.321H15.835V24.035h7.037Z" transform="translate(-14.6 -22.8)" fill="#111"/>
      </g>
      <g id="Group_83" data-name="Group 83" transform="translate(19.136 13.148)">
        <path id="Path_71" data-name="Path 71" d="M71.389,22.8H33.117a.583.583,0,0,0-.617.617v4.321a.583.583,0,0,0,.617.617H71.451a.583.583,0,0,0,.617-.617V23.417A.673.673,0,0,0,71.389,22.8Zm-.617,4.321H33.735V24.035h37.1v3.086Z" transform="translate(-32.5 -22.8)" fill="#111"/>
      </g>
      <g id="Group_84" data-name="Group 84" transform="translate(41.975 28.889)">
        <path id="Path_72" data-name="Path 72" d="M79.809,48.3H72.9a3.425,3.425,0,0,0-3.4,3.4V58.67a3.425,3.425,0,0,0,3.4,3.4H79.87a3.425,3.425,0,0,0,3.4-3.4V51.7A3.479,3.479,0,0,0,79.809,48.3Zm2.16,10.37a2.187,2.187,0,0,1-2.16,2.16H72.9a2.187,2.187,0,0,1-2.16-2.16V51.7a2.187,2.187,0,0,1,2.16-2.16H79.87a2.187,2.187,0,0,1,2.16,2.16V58.67Z" transform="translate(-69.5 -48.3)" fill="#111"/>
      </g>
    </g>
  </g>
</svg>
