<svg xmlns="http://www.w3.org/2000/svg" xmlns:xlink="http://www.w3.org/1999/xlink" width="72" height="72" viewBox="0 0 72 72">
  <defs>
    <clipPath id="clip-path">
      <rect id="Rectangle_69" data-name="Rectangle 69" width="72" height="72" transform="translate(682 2824)" fill="#dbdce0"/>
    </clipPath>
  </defs>
  <g id="Mask_Group_17" data-name="Mask Group 17" transform="translate(-682 -2824)" clip-path="url(#clip-path)">
    <g id="node" transform="translate(682 2831.199)">
      <path id="Path_226" data-name="Path 226" d="M35.584,50.85a1.486,1.486,0,0,1-.686-.18l-2.16-1.283c-.326-.18-.169-.248-.056-.281a3.939,3.939,0,0,0,.979-.45.194.194,0,0,1,.158.011l1.665.99a.215.215,0,0,0,.2,0l6.5-3.757a.213.213,0,0,0,.1-.18v-7.5a.191.191,0,0,0-.1-.18l-6.5-3.746a.215.215,0,0,0-.2,0l-6.5,3.746a.2.2,0,0,0-.1.18v7.5a.209.209,0,0,0,.1.169l1.777,1.024c.968.484,1.564-.09,1.564-.653V38.846a.19.19,0,0,1,.191-.191h.821a.19.19,0,0,1,.191.191V46.26A1.794,1.794,0,0,1,31.6,48.285a2.788,2.788,0,0,1-1.5-.405L28.4,46.9a1.39,1.39,0,0,1-.686-1.181v-7.5a1.352,1.352,0,0,1,.686-1.181l6.5-3.757a1.4,1.4,0,0,1,1.361,0l6.5,3.757a1.39,1.39,0,0,1,.686,1.181v7.5a1.352,1.352,0,0,1-.686,1.181l-6.5,3.757a1.245,1.245,0,0,1-.675.191Zm5.254-7.4c0-1.406-.945-1.777-2.947-2.048-2.025-.27-2.228-.4-2.228-.877,0-.394.169-.911,1.665-.911,1.339,0,1.834.293,2.036,1.193a.181.181,0,0,0,.18.146h.844a.186.186,0,0,0,.135-.056.177.177,0,0,0,.045-.146c-.135-1.552-1.159-2.273-3.24-2.273-1.856,0-2.959.788-2.959,2.093,0,1.429,1.1,1.811,2.88,1.991,2.126.214,2.295.518,2.295.934,0,.731-.585,1.035-1.957,1.035-1.721,0-2.1-.427-2.228-1.282a.185.185,0,0,0-.191-.158h-.844a.19.19,0,0,0-.191.191c0,1.091.6,2.4,3.442,2.4,2.081,0,3.263-.81,3.263-2.228Zm6.131-5.636a1.249,1.249,0,1,1-1.249-1.249A1.239,1.239,0,0,1,46.969,37.811Zm-.2,0a1.052,1.052,0,1,0-1.057,1.057A1.071,1.071,0,0,0,46.766,37.811Zm-.506.7h-.292c-.011-.068-.056-.427-.056-.439-.023-.079-.045-.124-.146-.124h-.248v.563h-.27V37.1h.484c.169,0,.5,0,.5.371a.33.33,0,0,1-.27.349c.191.011.2.135.236.315a1.568,1.568,0,0,0,.067.371Zm-.315-.99c0-.191-.135-.191-.2-.191h-.225v.394h.214A.19.19,0,0,0,45.945,37.519Zm-30.5-16.031a.818.818,0,0,0-.416-.72L8.134,16.8a.89.89,0,0,0-.383-.112H7.684A.793.793,0,0,0,7.3,16.8L.416,20.767a.831.831,0,0,0-.416.72L.011,32.175a.43.43,0,0,0,.2.36.4.4,0,0,0,.416,0l4.095-2.351a.845.845,0,0,0,.416-.72V24.469a.831.831,0,0,1,.416-.72l1.744-1a.8.8,0,0,1,.416-.113.772.772,0,0,1,.416.113l1.744,1a.831.831,0,0,1,.416.72v4.995a.831.831,0,0,0,.416.72l4.1,2.351a.4.4,0,0,0,.416,0,.416.416,0,0,0,.2-.36l.022-10.687ZM53.156,9.821V29.666a.831.831,0,0,1-.416.72l-6.9,3.982a.845.845,0,0,1-.833,0l-6.9-3.982a.831.831,0,0,1-.416-.72V21.7a.831.831,0,0,1,.416-.72L45.011,17a.845.845,0,0,1,.833,0l1.721.99A.3.3,0,0,0,48,17.741V7.166a.414.414,0,0,1,.619-.36L52.729,9.1a.815.815,0,0,1,.427.72Zm-5.175,14.5a.213.213,0,0,0-.1-.18L45.517,22.77a.238.238,0,0,0-.214,0l-2.362,1.372a.191.191,0,0,0-.1.18v2.734a.213.213,0,0,0,.1.18L45.3,28.6a.215.215,0,0,0,.2,0l2.362-1.361a.191.191,0,0,0,.1-.18V24.322Zm23.6-.079a.831.831,0,0,0,.416-.72V21.6a.831.831,0,0,0-.416-.72L64.732,16.9a.845.845,0,0,0-.833,0L57,20.88a.831.831,0,0,0-.416.72v7.965a.818.818,0,0,0,.416.72l6.851,3.9a.823.823,0,0,0,.821,0l4.14-2.306a.413.413,0,0,0,0-.72L61.875,27.18a.416.416,0,0,1-.214-.36v-2.5a.416.416,0,0,1,.214-.36l2.16-1.249a.4.4,0,0,1,.416,0l2.16,1.249a.441.441,0,0,1,.214.36V26.28a.422.422,0,0,0,.63.36l4.129-2.4Zm-8.7.394a.172.172,0,0,0-.079.135V26.3a.156.156,0,0,0,.079.135l1.327.765a.135.135,0,0,0,.158,0l1.327-.765a.172.172,0,0,0,.079-.135v-1.53a.156.156,0,0,0-.079-.135l-1.327-.765a.135.135,0,0,0-.158,0Zm-28.6,4.894v-7.92a.853.853,0,0,0-.439-.72l-6.874-3.96a.844.844,0,0,0-.832,0l-6.874,3.96a.839.839,0,0,0-.439.72v7.92a.868.868,0,0,0,.45.72l6.885,3.96a.817.817,0,0,0,.833,0l6.863-3.96a.836.836,0,0,0,.4-.529.991.991,0,0,0,.023-.191ZM25.931,15.48l-.09.056h.124ZM34.5,30.127l-.045-.079v.1l.045-.023Z" fill="#dbdce0"/>
    </g>
  </g>
</svg>
