<svg xmlns="http://www.w3.org/2000/svg" xmlns:xlink="http://www.w3.org/1999/xlink" width="72" height="72" viewBox="0 0 72 72">
  <defs>
    <clipPath id="clip-path">
      <rect id="Rectangle_67" data-name="Rectangle 67" width="72" height="72" transform="translate(489 2824)" fill="#dbdce0"/>
    </clipPath>
  </defs>
  <g id="Mask_Group_15" data-name="Mask Group 15" transform="translate(-489 -2824)" clip-path="url(#clip-path)">
    <g id="php" transform="translate(489 2831.2)">
      <path id="Path_224" data-name="Path 224" d="M36,11.756c-19.271,0-34.11,8.123-34.11,17.044S16.717,45.844,36,45.844,70.11,37.721,70.11,28.8,55.283,11.756,36,11.756Zm0-1.89c19.879,0,36,8.471,36,18.934S55.879,47.734,36,47.734,0,39.263,0,28.8,16.121,9.866,36,9.866ZM24.548,27.281c.832-4.32-2.07-3.859-6.345-3.859l-1.541,7.942C20.52,31.365,23.659,31.837,24.548,27.281ZM10.957,39.409,14.636,20.43H22.59c2.385,0,4.14.619,5.231,1.879,2.093,2.407,1.328,7.211-1.609,9.911-2.655,2.486-5.524,2.149-10.148,2.149l-.979,5.04Zm20.891-24.03h4.106l-.979,5.04c3.544,0,6.829-.259,8.415,1.2,1.665,1.53.866,3.487-.934,12.724H38.295c1.732-8.933,2.059-9.675,1.429-10.35-.608-.653-1.991-.517-5.333-.517L32.276,34.346H28.17Zm24.964,11.9c.833-4.32-2.048-3.859-6.345-3.859l-1.541,7.943c3.758,0,6.986.54,7.886-4.084ZM43.222,39.409l3.69-18.979h7.954c2.385,0,4.14.619,5.231,1.879,2.093,2.407,1.328,7.211-1.609,9.911-2.6,2.43-5.287,2.149-10.147,2.149l-.979,5.04Z" fill="#dbdce0"/>
    </g>
  </g>
</svg>
