<svg xmlns="http://www.w3.org/2000/svg" xmlns:xlink="http://www.w3.org/1999/xlink" width="40" height="19" viewBox="0 0 40 19">
  <defs>
    <clipPath id="clip-path">
      <rect id="Rectangle_65" data-name="Rectangle 65" width="40" height="19" transform="translate(1093.568 3994.512)" fill="#e8e8e8"/>
    </clipPath>
  </defs>
  <g id="Mask_Group_13" data-name="Mask Group 13" transform="translate(-1093.568 -3994.512)" clip-path="url(#clip-path)">
    <g id="ios-arrow-round-forward" transform="translate(1099.306 3994.5)">
      <path id="Path_222" data-name="Path 222" d="M38.606,29.533a1.3,1.3,0,0,0-.01,1.823L44.62,37.39H21.693a1.288,1.288,0,0,0,0,2.576H44.61L38.586,46a1.3,1.3,0,0,0,.01,1.823,1.283,1.283,0,0,0,1.813-.01l8.164-8.223a1.446,1.446,0,0,0,.268-.406,1.229,1.229,0,0,0,.1-.5,1.291,1.291,0,0,0-.367-.9l-8.164-8.223a1.262,1.262,0,0,0-1.8-.03Z" transform="translate(-20.415 -29.169)" fill="#111"/>
    </g>
  </g>
</svg>
