<svg xmlns="http://www.w3.org/2000/svg" width="101.386" height="95.394" viewBox="0 0 101.386 95.394">
  <g id="Group_242" data-name="Group 242" transform="translate(-1.52 -6.2)">
    <g id="Group_200" data-name="Group 200" transform="translate(35.224 91.273)">
      <path id="Path_180" data-name="Path 180" d="M55.963,143.326H70.225a.563.563,0,1,0,0-1.126H55.963a.561.561,0,0,0-.563.563A.6.6,0,0,0,55.963,143.326Z" transform="translate(-55.4 -142.2)" fill="#111"/>
    </g>
    <g id="Group_201" data-name="Group 201" transform="translate(51.791 91.273)">
      <path id="Path_181" data-name="Path 181" d="M82.457,143.326h2.377a.563.563,0,1,0,0-1.126H82.457a.561.561,0,0,0-.563.563C81.832,143.013,82.082,143.326,82.457,143.326Z" transform="translate(-81.885 -142.2)" fill="#111"/>
    </g>
    <g id="Group_202" data-name="Group 202" transform="translate(56.117 91.273)">
      <path id="Path_182" data-name="Path 182" d="M89.363,143.326h1.564a.563.563,0,1,0,0-1.126H89.363a.561.561,0,0,0-.563.563A.6.6,0,0,0,89.363,143.326Z" transform="translate(-88.8 -142.2)" fill="#111"/>
    </g>
    <g id="Group_203" data-name="Group 203" transform="translate(53.364 94.087)">
      <path id="Path_183" data-name="Path 183" d="M84.4,147.263a.561.561,0,0,0,.563.563H99.225a.563.563,0,0,0,0-1.126H84.963A.561.561,0,0,0,84.4,147.263Z" transform="translate(-84.4 -146.7)" fill="#111"/>
    </g>
    <g id="Group_204" data-name="Group 204" transform="translate(48.735 94.087)">
      <path id="Path_184" data-name="Path 184" d="M77,147.263a.561.561,0,0,0,.563.563H79.94a.563.563,0,1,0,0-1.126H77.563A.561.561,0,0,0,77,147.263Z" transform="translate(-77 -146.7)" fill="#111"/>
    </g>
    <g id="Group_205" data-name="Group 205" transform="translate(45.17 94.087)">
      <path id="Path_185" data-name="Path 185" d="M73.427,146.7H71.863a.563.563,0,1,0,0,1.126h1.564a.561.561,0,0,0,.563-.563C74.052,146.95,73.74,146.7,73.427,146.7Z" transform="translate(-71.3 -146.7)" fill="#111"/>
    </g>
    <g id="Group_206" data-name="Group 206" transform="translate(75.508 53.115)">
      <path id="Path_186" data-name="Path 186" d="M127.557,81.7l-.313,1.564a10.792,10.792,0,0,0-1.5.626l-1.314-.876a.569.569,0,0,0-.751.063l-2,2a.569.569,0,0,0-.063.751l.876,1.314a7.652,7.652,0,0,0-.626,1.5l-1.564.313a.665.665,0,0,0-.5.563V92.4a.548.548,0,0,0,.5.563l1.564.313a6.344,6.344,0,0,0,.626,1.5l-.876,1.314a.569.569,0,0,0,.063.751l2,2a.569.569,0,0,0,.751.063l1.314-.876a7.653,7.653,0,0,0,1.5.626l.313,1.564a.665.665,0,0,0,.563.5H131a.548.548,0,0,0,.563-.5l.313-1.564a7.652,7.652,0,0,0,1.5-.626l1.314.876a.569.569,0,0,0,.751-.063l2-2a.569.569,0,0,0,.063-.751l-.876-1.314a7.654,7.654,0,0,0,.626-1.5l1.564-.313a.665.665,0,0,0,.5-.563V89.52a.548.548,0,0,0-.5-.563l-1.564-.313a7.654,7.654,0,0,0-.626-1.5l.876-1.314a.569.569,0,0,0-.063-.751l-2-2a.569.569,0,0,0-.751-.063l-1.314.876a7.653,7.653,0,0,0-1.5-.626L131.56,81.7a.665.665,0,0,0-.563-.5H128.12A.665.665,0,0,0,127.557,81.7Zm.813,2.127.25-1.439H130.5l.25,1.439c.063.25.188.438.438.438a7.112,7.112,0,0,1,1.877.813.568.568,0,0,0,.626,0l1.251-.813,1.314,1.314-.813,1.189a.568.568,0,0,0,0,.626,5.679,5.679,0,0,1,.751,1.939.618.618,0,0,0,.438.438l1.439.25V91.9l-1.439.25c-.25.063-.438.188-.438.438a7.509,7.509,0,0,1-.813,1.939.568.568,0,0,0,0,.626l.813,1.189-1.314,1.314-1.251-.813a.568.568,0,0,0-.626,0,5.9,5.9,0,0,1-1.877.751.618.618,0,0,0-.438.438l-.25,1.439h-1.877l-.25-1.439c-.063-.25-.188-.438-.438-.438a7.112,7.112,0,0,1-1.877-.813.568.568,0,0,0-.626,0l-1.189.813-1.314-1.314.813-1.189a.568.568,0,0,0,0-.626,8.124,8.124,0,0,1-.813-1.877.618.618,0,0,0-.438-.438l-1.439-.25V90.02l1.439-.25c.25-.063.438-.188.438-.438a6.933,6.933,0,0,1,.751-1.877.568.568,0,0,0,0-.626l-.813-1.189,1.314-1.314,1.189.813a.568.568,0,0,0,.626,0,7.509,7.509,0,0,1,1.939-.813A.6.6,0,0,0,128.37,83.827Z" transform="translate(-119.8 -81.2)" fill="#111"/>
    </g>
    <g id="Group_207" data-name="Group 207" transform="translate(80.7 58.244)">
      <path id="Path_187" data-name="Path 187" d="M128.1,94.029a4.629,4.629,0,1,0,4.629-4.629A4.7,4.7,0,0,0,128.1,94.029Zm4.566-3.378a3.44,3.44,0,1,1-3.44,3.44A3.471,3.471,0,0,1,132.666,90.651Z" transform="translate(-128.1 -89.4)" fill="#111"/>
    </g>
    <g id="Group_208" data-name="Group 208" transform="translate(37.663 34.912)">
      <path id="Path_188" data-name="Path 188" d="M88.012,96.075V53.163A1.054,1.054,0,0,0,86.949,52.1H60.363A1.054,1.054,0,0,0,59.3,53.163V96.075a1.054,1.054,0,0,0,1.063,1.063H86.949A1.1,1.1,0,0,0,88.012,96.075Zm-1.189-.125h-26.4V53.226h26.4Z" transform="translate(-59.3 -52.1)" fill="#111"/>
    </g>
    <g id="Group_209" data-name="Group 209" transform="translate(49.298 80.764)">
      <path id="Path_189" data-name="Path 189" d="M80.59,125.4a2.69,2.69,0,1,0,2.69,2.69A2.632,2.632,0,0,0,80.59,125.4Zm0,4.254a1.564,1.564,0,1,1,1.564-1.564A1.549,1.549,0,0,1,80.59,129.654Z" transform="translate(-77.9 -125.4)" fill="#111"/>
    </g>
    <g id="Group_210" data-name="Group 210" transform="translate(48.047 61.309)">
      <path id="Path_190" data-name="Path 190" d="M77.464,102.182h4.754a1.549,1.549,0,0,0,1.564-1.564V95.864A1.549,1.549,0,0,0,82.218,94.3H77.464A1.549,1.549,0,0,0,75.9,95.864v4.754A1.549,1.549,0,0,0,77.464,102.182Zm-.375-6.318a.4.4,0,0,1,.375-.375h4.754a.4.4,0,0,1,.375.375v4.754a.4.4,0,0,1-.375.375H77.464a.4.4,0,0,1-.375-.375Z" transform="translate(-75.9 -94.3)" fill="#111"/>
    </g>
    <g id="Group_211" data-name="Group 211" transform="translate(1.52 6.2)">
      <path id="Path_191" data-name="Path 191" d="M99.966,19.774h-14.7a47.663,47.663,0,0,0-60.489-5.067,47.925,47.925,0,0,0-17.2,21.643,15.341,15.341,0,0,0-5.817,9.571,14.837,14.837,0,0,0,2.69,11.51,47.471,47.471,0,0,0,14.137,30.4c0,.063.063.125.125.188a47.456,47.456,0,0,0,33.341,13.574h0A47.774,47.774,0,0,0,98.027,41.23h2a2.87,2.87,0,0,0,2.877-2.877v-15.7A2.923,2.923,0,0,0,99.966,19.774ZM2.884,46.109c2.189-12.26,18.078-15.7,25.209-5.63a13.907,13.907,0,0,1-4.691,20.2c-.563.313-.313.5,1.564,7.506-10.134-8.132-5.254-5-10.7-5.943A13.959,13.959,0,0,1,2.884,46.109Zm32.4,37.469V33.6a3.471,3.471,0,0,1,3.44-3.44H65.312a3.471,3.471,0,0,1,3.44,3.44v49.98a3.471,3.471,0,0,1-3.44,3.44H38.727A3.43,3.43,0,0,1,35.286,83.578Zm30.026,4.629h18.14a46.611,46.611,0,0,1-31.4,12.26h0a46.494,46.494,0,0,1-31.4-12.26H65.312ZM98.528,53.928A46.3,46.3,0,0,1,84.641,87.019H68.377a4.684,4.684,0,0,0,1.564-3.44V33.6a4.619,4.619,0,0,0-4.629-4.629H38.727A4.619,4.619,0,0,0,34.1,33.6v49.98a4.684,4.684,0,0,0,1.564,3.44H19.4A46.237,46.237,0,0,1,5.761,58.995a14.787,14.787,0,0,0,11.572,4.566l8.257,6.693a.889.889,0,0,0,.375.125.586.586,0,0,0,.563-.751L24.34,61.5a5.669,5.669,0,0,0,1-.688A15.1,15.1,0,0,0,9.389,35.225,46.5,46.5,0,0,1,83.578,19.774H75.446a2.87,2.87,0,0,0-2.877,2.877V38.478a2.9,2.9,0,0,0,2.815,2.877v5.692a.557.557,0,0,0,.313.5.376.376,0,0,0,.25.063.478.478,0,0,0,.313-.125l9.133-6.193H96.714A42.876,42.876,0,0,1,98.528,53.928Zm3.128-15.513A1.682,1.682,0,0,1,99.966,40.1H85.2a.478.478,0,0,0-.313.125l-8.32,5.692V40.729a.561.561,0,0,0-.563-.563h-.563a1.682,1.682,0,0,1-1.689-1.689V22.652a1.682,1.682,0,0,1,1.689-1.689H99.966a1.682,1.682,0,0,1,1.689,1.689V38.415Z" transform="translate(-1.52 -6.2)" fill="#111"/>
    </g>
    <g id="Group_212" data-name="Group 212" transform="translate(9.014 38.165)">
      <path id="Path_192" data-name="Path 192" d="M22.7,77.129c2.252-3.253,6.068-9.133,6.068-12.2a7.632,7.632,0,1,0-15.263,0c0,3,3.816,8.945,6.068,12.2A1.87,1.87,0,0,0,22.7,77.129ZM21.132,58.489a6.434,6.434,0,0,1,6.443,6.443c0,2-2.127,6.193-5.88,11.51a.767.767,0,0,1-1.189,0c-3.753-5.317-5.88-9.508-5.88-11.51A6.57,6.57,0,0,1,21.132,58.489Z" transform="translate(-13.5 -57.3)" fill="#111"/>
    </g>
    <g id="Group_213" data-name="Group 213" transform="translate(12.204 41.418)">
      <path id="Path_193" data-name="Path 193" d="M27.483,66.941a4.441,4.441,0,1,0-4.441,4.441A4.458,4.458,0,0,0,27.483,66.941Zm-7.694,0a3.27,3.27,0,0,1,3.253-3.253,3.231,3.231,0,0,1,3.253,3.253,3.253,3.253,0,0,1-6.506,0Z" transform="translate(-18.6 -62.5)" fill="#111"/>
    </g>
    <g id="Group_214" data-name="Group 214" transform="translate(75.813 23.465)">
      <path id="Path_194" data-name="Path 194" d="M120.858,34.926h5.817a.563.563,0,0,0,0-1.126h-5.817a.561.561,0,0,0-.563.563C120.233,34.676,120.545,34.926,120.858,34.926Z" transform="translate(-120.287 -33.8)" fill="#111"/>
    </g>
    <g id="Group_215" data-name="Group 215" transform="translate(78.761 25.957)">
      <path id="Path_195" data-name="Path 195" d="M125,38.357a.561.561,0,0,0,.563.563h7.194a.563.563,0,0,0,0-1.126h-7.194C125.25,37.732,125,37.982,125,38.357Z" transform="translate(-125 -37.785)" fill="#111"/>
    </g>
    <g id="Group_216" data-name="Group 216" transform="translate(87.831 25.967)">
      <path id="Path_196" data-name="Path 196" d="M140.063,38.926h4.879a.563.563,0,0,0,0-1.126h-4.879a.563.563,0,0,0,0,1.126Z" transform="translate(-139.5 -37.8)" fill="#111"/>
    </g>
    <g id="Group_217" data-name="Group 217" transform="translate(94.399 25.904)">
      <path id="Path_197" data-name="Path 197" d="M154.942,37.7h-4.379a.563.563,0,0,0,0,1.126h4.379a.563.563,0,0,0,0-1.126Z" transform="translate(-150 -37.7)" fill="#111"/>
    </g>
    <g id="Group_218" data-name="Group 218" transform="translate(78.573 28.406)">
      <path id="Path_198" data-name="Path 198" d="M137.649,41.7H125.263a.563.563,0,1,0,0,1.126h12.386a.561.561,0,0,0,.563-.563A.6.6,0,0,0,137.649,41.7Z" transform="translate(-124.7 -41.7)" fill="#111"/>
    </g>
    <g id="Group_219" data-name="Group 219" transform="translate(93.211 28.469)">
      <path id="Path_199" data-name="Path 199" d="M151.728,42.926a.563.563,0,0,0,0-1.126h-3.065a.563.563,0,0,0,0,1.126Z" transform="translate(-148.1 -41.8)" fill="#111"/>
    </g>
    <g id="Group_220" data-name="Group 220" transform="translate(75.571 31.472)">
      <path id="Path_200" data-name="Path 200" d="M127.281,47.163a.561.561,0,0,0-.563-.563h-6.255a.563.563,0,1,0,0,1.126h6.255C127.031,47.789,127.281,47.476,127.281,47.163Z" transform="translate(-119.9 -46.6)" fill="#111"/>
    </g>
    <g id="Group_221" data-name="Group 221" transform="translate(78.698 33.974)">
      <path id="Path_201" data-name="Path 201" d="M124.9,51.163a.561.561,0,0,0,.563.563h13.762a.563.563,0,1,0,0-1.126H125.463A.561.561,0,0,0,124.9,51.163Z" transform="translate(-124.9 -50.6)" fill="#111"/>
    </g>
    <g id="Group_222" data-name="Group 222" transform="translate(94.337 33.974)">
      <path id="Path_202" data-name="Path 202" d="M154.654,50.6h-4.191a.563.563,0,0,0,0,1.126h4.191a.561.561,0,0,0,.563-.563C155.28,50.85,155.029,50.6,154.654,50.6Z" transform="translate(-149.9 -50.6)" fill="#111"/>
    </g>
    <g id="Group_223" data-name="Group 223" transform="translate(78.636 36.476)">
      <path id="Path_203" data-name="Path 203" d="M132.244,54.6h-6.881a.563.563,0,1,0,0,1.126h6.881a.563.563,0,0,0,0-1.126Z" transform="translate(-124.8 -54.6)" fill="#111"/>
    </g>
    <g id="Group_224" data-name="Group 224" transform="translate(88.457 36.476)">
      <path id="Path_204" data-name="Path 204" d="M149.257,54.6h-8.194a.563.563,0,0,0,0,1.126h8.194a.563.563,0,0,0,0-1.126Z" transform="translate(-140.5 -54.6)" fill="#111"/>
    </g>
    <g id="Group_225" data-name="Group 225" transform="translate(23.651 20.525)">
      <path id="Path_205" data-name="Path 205" d="M74.932,30.6H58.856a2.085,2.085,0,0,0-4,0H37.463a.563.563,0,0,0,0,1.126H54.79a2.085,2.085,0,0,0,4,0H74.932a.561.561,0,0,0,.563-.563C75.558,30.851,75.308,30.6,74.932,30.6Zm-18.14,1.5a.962.962,0,0,1-.938-.938h0a.938.938,0,1,1,1.877,0h0A.921.921,0,0,1,56.792,32.1Z" transform="translate(-36.9 -29.1)" fill="#111"/>
    </g>
    <g id="Group_226" data-name="Group 226" transform="translate(47.6 31.972)">
      <path id="Path_206" data-name="Path 206" d="M75.757,48.526h7.694a.563.563,0,0,0,0-1.126H75.757a.561.561,0,0,0-.563.563C75.132,48.276,75.382,48.526,75.757,48.526Z" transform="translate(-75.185 -47.4)" fill="#111"/>
    </g>
    <g id="Group_227" data-name="Group 227" transform="translate(40.291 37.602)">
      <path id="Path_207" data-name="Path 207" d="M64.5,63.156h4.754a.988.988,0,0,0,1-1V57.4a.988.988,0,0,0-1-1H64.5a.988.988,0,0,0-1,1v4.754A1.075,1.075,0,0,0,64.5,63.156Zm.25-5.567H69.13v4.379H64.751Z" transform="translate(-63.5 -56.4)" fill="#111"/>
    </g>
    <g id="Group_228" data-name="Group 228" transform="translate(48.61 37.602)">
      <path id="Path_208" data-name="Path 208" d="M77.8,63.156h4.754a.988.988,0,0,0,1-1V57.4a.988.988,0,0,0-1-1H77.8a.988.988,0,0,0-1,1v4.754A1.075,1.075,0,0,0,77.8,63.156Zm.188-5.567h4.379v4.379H77.989Z" transform="translate(-76.8 -56.4)" fill="#111"/>
    </g>
    <g id="Group_229" data-name="Group 229" transform="translate(56.93 37.602)">
      <path id="Path_209" data-name="Path 209" d="M91.1,63.156h4.754a.988.988,0,0,0,1-1V57.4a.988.988,0,0,0-1-1H91.1a.988.988,0,0,0-1,1v4.754A.988.988,0,0,0,91.1,63.156Zm.188-5.567h4.379v4.379H91.289Z" transform="translate(-90.1 -56.4)" fill="#111"/>
    </g>
    <g id="Group_230" data-name="Group 230" transform="translate(40.291 47.172)">
      <path id="Path_210" data-name="Path 210" d="M64.5,78.456h4.754a.988.988,0,0,0,1-1V72.7a.988.988,0,0,0-1-1H64.5a.988.988,0,0,0-1,1v4.754A1.075,1.075,0,0,0,64.5,78.456Zm.25-5.567H69.13v4.379H64.751Z" transform="translate(-63.5 -71.7)" fill="#111"/>
    </g>
    <g id="Group_231" data-name="Group 231" transform="translate(48.61 47.172)">
      <path id="Path_211" data-name="Path 211" d="M77.8,78.456h4.754a.988.988,0,0,0,1-1V72.7a.988.988,0,0,0-1-1H77.8a.988.988,0,0,0-1,1v4.754A1.075,1.075,0,0,0,77.8,78.456Zm.188-5.567h4.379v4.379H77.989Z" transform="translate(-76.8 -71.7)" fill="#111"/>
    </g>
    <g id="Group_232" data-name="Group 232" transform="translate(56.93 47.172)">
      <path id="Path_212" data-name="Path 212" d="M91.1,78.456h4.754a.988.988,0,0,0,1-1V72.7a.988.988,0,0,0-1-1H91.1a.988.988,0,0,0-1,1v4.754A.988.988,0,0,0,91.1,78.456Zm.188-5.567h4.379v4.379H91.289Z" transform="translate(-90.1 -71.7)" fill="#111"/>
    </g>
    <g id="Group_233" data-name="Group 233" transform="translate(45.17 69.504)">
      <path id="Path_213" data-name="Path 213" d="M73.3,108.839h-.876v-.876a.563.563,0,0,0-1.126,0v1.5a.561.561,0,0,0,.563.563h1.5a.561.561,0,0,0,.563-.563A.729.729,0,0,0,73.3,108.839Z" transform="translate(-71.3 -107.4)" fill="#111"/>
    </g>
    <g id="Group_234" data-name="Group 234" transform="translate(45.107 63.061)">
      <path id="Path_214" data-name="Path 214" d="M71.763,101.479a.561.561,0,0,0,.563-.563V97.663a.563.563,0,1,0-1.126,0v3.19A.578.578,0,0,0,71.763,101.479Z" transform="translate(-71.2 -97.1)" fill="#111"/>
    </g>
    <g id="Group_235" data-name="Group 235" transform="translate(45.107 58.422)">
      <path id="Path_215" data-name="Path 215" d="M71.2,90.195v1.5a.563.563,0,1,0,1.126,0V90.82H73.2a.563.563,0,0,0,0-1.126H71.7C71.45,89.632,71.2,89.882,71.2,90.195Z" transform="translate(-71.2 -89.685)" fill="#111"/>
    </g>
    <g id="Group_236" data-name="Group 236" transform="translate(49.861 58.369)">
      <path id="Path_216" data-name="Path 216" d="M79.363,89.6a.563.563,0,0,0,0,1.126h3.19a.563.563,0,0,0,0-1.126Z" transform="translate(-78.8 -89.6)" fill="#111"/>
    </g>
    <g id="Group_237" data-name="Group 237" transform="translate(56.179 58.369)">
      <path id="Path_217" data-name="Path 217" d="M89.526,90.789H90.4v.876a.563.563,0,1,0,1.126,0v-1.5a.561.561,0,0,0-.563-.563h-1.5a.561.561,0,0,0-.563.563A.67.67,0,0,0,89.526,90.789Z" transform="translate(-88.9 -89.6)" fill="#111"/>
    </g>
    <g id="Group_238" data-name="Group 238" transform="translate(57.743 63.061)">
      <path id="Path_218" data-name="Path 218" d="M91.963,97.1a.561.561,0,0,0-.563.563v3.19a.563.563,0,1,0,1.126,0v-3.19A.561.561,0,0,0,91.963,97.1Z" transform="translate(-91.4 -97.1)" fill="#111"/>
    </g>
    <g id="Group_239" data-name="Group 239" transform="translate(56.295 69.504)">
      <path id="Path_219" data-name="Path 219" d="M89.595,110.027h1.5a.561.561,0,0,0,.563-.563v-1.5a.563.563,0,1,0-1.126,0v.876h-.876a.561.561,0,0,0-.563.563A.5.5,0,0,0,89.595,110.027Z" transform="translate(-89.085 -107.4)" fill="#111"/>
    </g>
    <g id="Group_240" data-name="Group 240" transform="translate(49.861 70.943)">
      <path id="Path_220" data-name="Path 220" d="M82.553,109.7h-3.19a.563.563,0,0,0,0,1.126h3.19a.561.561,0,0,0,.563-.563A.6.6,0,0,0,82.553,109.7Z" transform="translate(-78.8 -109.7)" fill="#111"/>
    </g>
  </g>
</svg>
