<svg id="Group_199" data-name="Group 199" xmlns="http://www.w3.org/2000/svg" width="100" height="97.728" viewBox="0 0 100 97.728">
  <g id="Group_87" data-name="Group 87" transform="translate(31.072 83.834)">
    <path id="Path_73" data-name="Path 73" d="M55.394,145.788H74.21a.794.794,0,0,0,0-1.588H55.394a.794.794,0,0,0,0,1.588Z" transform="translate(-54.6 -144.2)" fill="#111"/>
  </g>
  <g id="Group_88" data-name="Group 88" transform="translate(49.282 83.834)">
    <path id="Path_74" data-name="Path 74" d="M82.894,145.788h3.1a.794.794,0,0,0,0-1.588h-3.1a.8.8,0,0,0-.794.794A.75.75,0,0,0,82.894,145.788Z" transform="translate(-82.1 -144.2)" fill="#111"/>
  </g>
  <g id="Group_89" data-name="Group 89" transform="translate(53.812 83.834)">
    <path id="Path_75" data-name="Path 75" d="M90.094,145.788h2.064a.794.794,0,0,0,0-1.588H90.094a.794.794,0,0,0,0,1.588Z" transform="translate(-89.3 -144.2)" fill="#111"/>
  </g>
  <g id="Group_90" data-name="Group 90" transform="translate(48.71 87.645)">
    <path id="Path_76" data-name="Path 76" d="M84.8,149.794a.8.8,0,0,0,.794.794H104.41a.794.794,0,0,0,0-1.588h-18.9A.844.844,0,0,0,84.8,149.794Z" transform="translate(-84.8 -149)" fill="#111"/>
  </g>
  <g id="Group_91" data-name="Group 91" transform="translate(46.229 87.645)">
    <path id="Path_77" data-name="Path 77" d="M77.1,149.794a.8.8,0,0,0,.794.794h3.1a.794.794,0,0,0,0-1.588H77.815A.844.844,0,0,0,77.1,149.794Z" transform="translate(-77.1 -149)" fill="#111"/>
  </g>
  <g id="Group_92" data-name="Group 92" transform="translate(42.67 87.724)">
    <path id="Path_78" data-name="Path 78" d="M73.958,149.1H71.894a.794.794,0,0,0,0,1.588h2.064a.794.794,0,0,0,0-1.588Z" transform="translate(-71.1 -149.1)" fill="#111"/>
  </g>
  <g id="Group_93" data-name="Group 93">
    <path id="Path_79" data-name="Path 79" d="M101.165,83.039l-6.3-3.149h-.062c-.062,0-.123-.062-.185-.062H91.843a48.9,48.9,0,0,0-1.976-57.846V17.846A3.742,3.742,0,0,0,86.1,14.08H81.965a48.795,48.795,0,0,0-60.933,0H16.9a3.742,3.742,0,0,0-3.766,3.766v4.136a48.9,48.9,0,0,0-1.976,57.846H5.166a3.766,3.766,0,0,0,0,7.532H17.451a48.6,48.6,0,0,0,33.955,13.767h0A48.648,48.648,0,0,0,85.361,87.361H94.5a.371.371,0,0,0,.247-.062h0l6.3-3.149a.648.648,0,0,0,.309-.556A.407.407,0,0,0,101.165,83.039Zm-2.1-30.806a46.941,46.941,0,0,1-8.828,27.6H69.124a2.709,2.709,0,0,0,.556-1.667,2.9,2.9,0,0,0-2.9-2.9h-.432l-2.469-7.1h22.1a3.742,3.742,0,0,0,3.766-3.766V23.958A46.936,46.936,0,0,1,99.066,52.233ZM34.429,78.162A1.66,1.66,0,0,1,36.1,76.5H66.716a1.667,1.667,0,1,1,0,3.334H36.1A1.66,1.66,0,0,1,34.429,78.162ZM14.365,59.333H88.571v5.062a2.542,2.542,0,0,1-2.531,2.531H16.9a2.542,2.542,0,0,1-2.531-2.531Zm48.277,8.828,2.469,7.1H37.886l2.469-7.1ZM51.468,4.635a47.057,47.057,0,0,1,28.46,9.446H23.008A47.6,47.6,0,0,1,51.468,4.635Zm-37.1,13.211A2.542,2.542,0,0,1,16.9,15.315H85.978a2.542,2.542,0,0,1,2.531,2.531V58.1H14.365ZM3.869,52.233a46.936,46.936,0,0,1,9.322-28.275V64.395a3.742,3.742,0,0,0,3.766,3.766h22.1l-2.469,7.1h-.432a2.9,2.9,0,0,0-2.9,2.9,2.585,2.585,0,0,0,.556,1.667H12.636A47.316,47.316,0,0,1,3.869,52.233ZM2.7,83.595a2.542,2.542,0,0,1,2.531-2.531v5.124h0A2.638,2.638,0,0,1,2.7,83.595Zm5.556,2.531H6.4V81H8.253ZM51.468,99.831h0A47.71,47.71,0,0,1,19.242,87.3H83.57A47.094,47.094,0,0,1,51.468,99.831ZM93.942,86.126H9.487V81H93.942Zm1.235-.37V81.434l4.383,2.161Z" transform="translate(-1.4 -3.4)" fill="#111"/>
  </g>
  <g id="Group_95" data-name="Group 95" transform="translate(46.494 55.878)">
    <path id="Path_81" data-name="Path 81" d="M81.573,102.646A3.573,3.573,0,1,0,78,99.073,3.558,3.558,0,0,0,81.573,102.646Zm0-5.558a1.985,1.985,0,1,1-1.985,1.985A1.966,1.966,0,0,1,81.573,97.088Z" transform="translate(-78 -95.5)" fill="#111"/>
  </g>
  <g id="Group_96" data-name="Group 96" transform="translate(29.8 15.928)">
    <path id="Path_82" data-name="Path 82" d="M57.318,65.78,67.083,71.5h0a.078.078,0,0,1,.079.079H67.8a.078.078,0,0,0,.079-.079h0l9.369-5.478L86.614,71.5h0a.078.078,0,0,1,.079.079h.635a.078.078,0,0,0,.079-.079h0l9.766-5.716a.81.81,0,0,0,.4-.635v-10a.81.81,0,0,0-.4-.635h0l-9.369-5.478V39.262c0-.079,0-.079-.079-.159v-.079a.078.078,0,0,0-.079-.079v-.079l-.079-.079h-.079l-9.845-5.716a.721.721,0,0,0-.794,0l-9.766,5.716H67a.078.078,0,0,0-.079.079v.079l-.079.079V39.1c0,.079-.079.079-.079.159v9.766L57.4,54.506h0a.81.81,0,0,0-.4.635v9.924A.774.774,0,0,0,57.318,65.78Zm1.191-9.289,5.081,3.017,3.176,1.826v8.178l-8.178-4.843V56.49ZM86.217,69.511,78.04,64.668V56.49l7.7,4.525.476.318Zm.794-9.527-7.542-4.446-.715-.4L87.011,50.3l8.178,4.843Zm-.794-11.036L78.04,53.791v-8.1l.238-.159,7.939-4.684Zm-10-3.414.238.159v8.1l-8.178-4.843v-8.1Zm-7.939,15.8,8.178-4.843v8.178l-8.178,4.843Zm19.531,8.178V61.334l.4-.238,7.86-4.6v8.178ZM77.246,34.657,85.5,39.5l-8.257,4.843L68.989,39.5ZM67.48,50.3l8.257,4.843L67.48,59.984l-8.257-4.843Z" transform="translate(-57 -32.95)" fill="#111"/>
  </g>
</svg>
