<svg id="footer-logo" xmlns="http://www.w3.org/2000/svg" width="198.348" height="34.414" viewBox="0 0 198.348 34.414">
  <g id="Layer_15" transform="translate(0)">
    <g id="Main" transform="translate(0)">
      <path id="Combined_Shape" data-name="Combined Shape" d="M36.692,34.395h0L12.96,25.46.248,32.677l0,0,0,0a.168.168,0,0,1-.225-.231l4.588-8.275a.19.19,0,0,1,.075-.077l3.761-2.2a.169.169,0,0,1,.234.228L5.8,27.33l7.25-4.112,18.729,7.065-5.816-10.59a.169.169,0,0,1,.234-.228l3.761,2.2a.193.193,0,0,1,.075.077l6.879,12.424a.168.168,0,0,1-.147.25A.166.166,0,0,1,36.692,34.395ZM5.648,22.559a.17.17,0,0,1-.031-.209L17.874.074a.139.139,0,0,1,.246,0L29,19.811a.169.169,0,0,1-.234.228l-1.407-.821L19.712,14.83,9.6,20.289a.2.2,0,0,1-.037.03L5.858,22.576a.17.17,0,0,1-.21-.017ZM17.886,5.319,11.241,17.338l8.379-4.75,3.668,2.18-5.16-9.449a.138.138,0,0,0-.121-.072A.136.136,0,0,0,17.886,5.319Z" fill="#fff"/>
    </g>
  </g>
  <g id="Group" transform="translate(45.411 1.371)">
    <g id="Layer_12" transform="translate(0.019 0)">
      <path id="Combined_Shape-2" data-name="Combined Shape" d="M100.462,7.984c0-4.767,3.656-7.984,8.378-7.984a7.253,7.253,0,0,1,7.128,4.489l-4.026,1.875a3.306,3.306,0,0,0-3.1-2.245,3.667,3.667,0,0,0-3.633,3.865,3.66,3.66,0,0,0,3.633,3.857,3.305,3.305,0,0,0,3.1-2.243l4.026,1.851a7.338,7.338,0,0,1-7.128,4.513h-.01C104.119,15.963,100.462,12.724,100.462,7.984ZM67.235,15.693,61.542,7.409v8.284H56.867V.264H61.68L67.05,8.04V.264h4.674V15.693Zm-23.034,0L38.508,7.409v8.284H33.834V.264h4.813L44.016,8.04V.264h4.675V15.693Zm34.021,0L83.915.261h5.878l5.693,15.428H90.418l-.6-1.99H83.892l-.6,1.99H78.222ZM85.1,9.811h3.518L86.854,4.374Zm56.074,5.879V.254h11.709V4.143h-7.035v1.8h6.881V9.836h-6.879V11.8h7.034v3.888Zm-18.067,0V.254h4.675V11.618h5.863v4.071Zm-118.429,0H0V.254H8.237A5.592,5.592,0,0,1,12.368,1.82a5.293,5.293,0,0,1,1.424,3.735A5.05,5.05,0,0,1,12.368,9.23a5.691,5.691,0,0,1-4.131,1.506H4.673v4.952h0Zm0-8.839H7.635a1.355,1.355,0,1,0,0-2.707H4.673Zm16.316,8.833V.254h4.675V15.683Z" fill="#fff"/>
    </g>
    <g id="Layer_16" transform="translate(0 26.384)">
      <path id="Combined_Shape-3" data-name="Combined Shape" d="M67.932,5.128a2.462,2.462,0,0,1-2.5-2.562,2.458,2.458,0,0,1,2.5-2.555,2.347,2.347,0,0,1,1.859.844l-.318.227A2.014,2.014,0,0,0,67.93.392a2.047,2.047,0,0,0-2.058,2.171A2.053,2.053,0,0,0,67.93,4.739a2.1,2.1,0,0,0,1.452-.6V2.955H67.519V2.577h2.288v1.73a2.494,2.494,0,0,1-1.85.822ZM34.21,4.32l.272-.307a2.006,2.006,0,0,0,1.542.717c1.016,0,1.3-.562,1.3-.985,0-.7-.659-.889-1.355-1.08-.772-.214-1.608-.436-1.608-1.349C34.365.511,35.091,0,35.987,0a2.126,2.126,0,0,1,1.674.7L37.381,1A1.769,1.769,0,0,0,35.966.387c-.659,0-1.156.378-1.156.912,0,.584.617.754,1.289.926.8.228,1.674.481,1.674,1.481,0,.637-.423,1.4-1.756,1.4A2.269,2.269,0,0,1,34.21,4.32Zm115.238.711V.092h2.029a1.218,1.218,0,0,1,1.362,1.259,1.126,1.126,0,0,1-.865,1.132,1.234,1.234,0,0,1,.962,1.214,1.276,1.276,0,0,1-1.415,1.333Zm.421-.384h1.586a.936.936,0,0,0,1.037-.978.964.964,0,0,0-1.037-.977h-1.586Zm0-2.34h1.555a.884.884,0,0,0,.971-.912.886.886,0,0,0-.971-.918h-1.555Zm-14.706,1.51h-2.63l-.5,1.214h-.474L133.582.094h.526l2.022,4.936h-.475Zm-2.5-.384h2.362L133.843.5Zm-16.922,1.6V.092h.423V4.647h2.391v.384Zm-32.275,0V.094H83.9l3.1,4.206V.092h.421V5.029H87L83.892.773V5.031Zm-65.754,0V.092h3.132V.477H18.136v1.83H20.8v.386h-2.66V4.647h2.711v.384Zm33.662,0V.092H51.8V5.029ZM0,5.029V.092H1.577A2.464,2.464,0,0,1,3.4.82a2.485,2.485,0,0,1,.673,1.741A2.485,2.485,0,0,1,3.4,4.3a2.462,2.462,0,0,1-1.824.727Zm.422-.387,1.154,0A2.006,2.006,0,0,0,3.092,4.04a2.142,2.142,0,0,0,.537-1.474A1.961,1.961,0,0,0,1.577.477H.422Z" transform="translate(0 0)" fill="#fff"/>
    </g>
  </g>
</svg>
