<svg xmlns="http://www.w3.org/2000/svg" xmlns:xlink="http://www.w3.org/1999/xlink" width="72" height="72" viewBox="0 0 72 72">
  <defs>
    <clipPath id="clip-path">
      <rect id="Rectangle_68" data-name="Rectangle 68" width="72" height="72" transform="translate(586 2824)" fill="#dbdce0"/>
    </clipPath>
  </defs>
  <g id="Mask_Group_16" data-name="Mask Group 16" transform="translate(-586 -2824)" clip-path="url(#clip-path)">
    <g id="react" transform="translate(586 2823.997)">
      <path id="Path_225" data-name="Path 225" d="M58.809,24.919q-1.139-.38-2.278-.717c.127-.52.239-1.041.352-1.561,1.73-8.381.591-15.117-3.248-17.339-3.7-2.123-9.731.084-15.834,5.4-.6.52-1.2,1.069-1.758,1.617-.38-.366-.773-.731-1.167-1.083-6.4-5.681-12.811-8.072-16.65-5.836-3.684,2.137-4.781,8.48-3.234,16.411.155.788.323,1.561.52,2.348-.9.253-1.786.534-2.616.83C5.386,27.591,0,31.7,0,35.944,0,40.331,5.737,44.733,13.542,47.4c.633.211,1.266.422,1.913.6-.211.844-.394,1.673-.562,2.531-1.477,7.8-.323,13.992,3.361,16.116,3.8,2.194,10.181-.056,16.4-5.5.492-.436.984-.886,1.477-1.364.619.6,1.266,1.181,1.913,1.744,6.019,5.175,11.967,7.27,15.638,5.147,3.8-2.194,5.034-8.845,3.431-16.945q-.19-.928-.422-1.9c.45-.127.886-.267,1.322-.408C66.122,44.747,72,40.4,72,35.944c0-4.261-5.541-8.4-13.191-11.025ZM39.783,12.98c5.231-4.556,10.111-6.342,12.333-5.062,2.377,1.364,3.291,6.877,1.8,14.119-.1.478-.2.942-.323,1.406a71.99,71.99,0,0,0-9.464-1.491,71.05,71.05,0,0,0-5.991-7.467c.548-.52,1.083-1.012,1.645-1.5ZM23.512,43.242c.717,1.223,1.448,2.447,2.222,3.642a63.678,63.678,0,0,1-6.525-1.055A65.692,65.692,0,0,1,21.5,39.572c.647,1.237,1.308,2.461,2.011,3.67ZM19.252,26.325c2.025-.45,4.177-.816,6.413-1.1C24.919,26.4,24.188,27.591,23.5,28.8s-1.364,2.419-2,3.656c-.886-2.1-1.631-4.148-2.25-6.131ZM23.1,36.014c.928-1.941,1.941-3.839,3.009-5.709s2.222-3.684,3.431-5.47C31.655,24.68,33.806,24.6,36,24.6s4.359.084,6.455.239q1.793,2.658,3.417,5.442t3.052,5.681Q47.51,38.869,45.886,41.7c-1.069,1.87-2.208,3.684-3.4,5.484-2.1.155-4.275.225-6.483.225s-4.345-.07-6.413-.2q-1.835-2.679-3.459-5.484c-1.083-1.87-2.081-3.769-3.023-5.709Zm25.4,7.2c.717-1.237,1.392-2.489,2.053-3.755a65.28,65.28,0,0,1,2.377,6.23,61.766,61.766,0,0,1-6.609,1.125c.759-1.181,1.477-2.391,2.18-3.6Zm2.025-10.758c-.661-1.238-1.336-2.475-2.039-3.684s-1.406-2.377-2.152-3.544a64.712,64.712,0,0,1,6.455,1.125A62.235,62.235,0,0,1,50.527,32.456Zm-14.5-15.82a61.751,61.751,0,0,1,4.163,5.034c-2.784-.127-5.583-.127-8.367,0C33.2,19.856,34.622,18.169,36.028,16.636ZM19.716,8.016c2.363-1.378,7.608.591,13.134,5.484.352.309.7.647,1.069.984a71.445,71.445,0,0,0-6.033,7.467,74.128,74.128,0,0,0-9.45,1.462c-.183-.717-.337-1.448-.492-2.18-1.322-6.806-.45-11.939,1.772-13.219ZM16.27,45.084c-.591-.169-1.167-.352-1.744-.548a28.681,28.681,0,0,1-8.859-4.388,6.31,6.31,0,0,1-2.644-4.2c0-2.573,4.444-5.864,10.856-8.1.8-.281,1.617-.534,2.433-.773a74.777,74.777,0,0,0,3.445,8.944A76.869,76.869,0,0,0,16.27,45.084Zm16.4,13.781a25.739,25.739,0,0,1-7.931,4.964,6.224,6.224,0,0,1-4.964.183c-2.236-1.294-3.164-6.258-1.9-12.937.155-.787.323-1.575.52-2.348A70.35,70.35,0,0,0,27.942,50.1a74.211,74.211,0,0,0,6.075,7.509c-.45.436-.9.858-1.35,1.252Zm3.445-3.417c-1.434-1.547-2.869-3.263-4.261-5.1,1.35.056,2.742.084,4.148.084,1.448,0,2.869-.028,4.275-.1A60.644,60.644,0,0,1,36.112,55.448Zm18.38,4.219a6.25,6.25,0,0,1-2.32,4.4c-2.236,1.294-7-.394-12.15-4.809-.591-.506-1.181-1.055-1.786-1.617A69.565,69.565,0,0,0,44.17,50.1a69.323,69.323,0,0,0,9.591-1.477c.141.577.267,1.153.38,1.716a25.635,25.635,0,0,1,.352,9.323ZM57.052,44.55c-.394.127-.787.253-1.2.366a71.437,71.437,0,0,0-3.586-8.972A71.08,71.08,0,0,0,55.716,27.1c.731.211,1.434.436,2.109.661,6.553,2.25,11.152,5.6,11.152,8.156C68.977,38.672,64.069,42.23,57.052,44.55ZM36,42.441A6.441,6.441,0,1,0,29.559,36,6.44,6.44,0,0,0,36,42.441Z" fill="#dbdce0"/>
    </g>
  </g>
</svg>
