<svg xmlns="http://www.w3.org/2000/svg" width="119.503" height="98.658" viewBox="0 0 119.503 98.658">
  <g id="noun_web_design_1849452" data-name="noun_web design_1849452" transform="translate(-1.6 -15.7)">
    <g id="Group_142" data-name="Group 142" transform="translate(1.6 15.7)">
      <g id="Group_98" data-name="Group 98">
        <path id="Path_83" data-name="Path 83" d="M120.861,73.6C109.046,67.688,110.3,68.2,109.637,68.2a48.432,48.432,0,0,0-16.1-38.178v-9.6a4.845,4.845,0,0,0-2.289-4.062,4.648,4.648,0,0,0-2.437-.665H33.945a4.79,4.79,0,0,0-4.8,4.8v9.6A48.117,48.117,0,0,0,13.12,68.2H7.508a5.908,5.908,0,0,0,0,11.815h7.606A47.418,47.418,0,0,0,27.52,100.4c.3.591,13,13.957,33.821,13.957h0a48.406,48.406,0,0,0,33.748-13.735l.148-.148a48.14,48.14,0,0,0,12.406-20.382h2.215a.271.271,0,0,0,.222-.074h0L120.788,74.7a.494.494,0,0,0,.3-.517A.51.51,0,0,0,120.861,73.6ZM108.381,68.2H93.464V31.651A46.969,46.969,0,0,1,108.381,68.2Zm-47.04,44.972h0a47.322,47.322,0,0,1-31.754-12.406H93.169A47.506,47.506,0,0,1,61.341,113.177ZM12.382,78.838V69.386H29.218v9.452ZM30.4,99.589V24.562H92.283V99.589Zm0-79.163a3.545,3.545,0,0,1,3.545-3.545H88.738a4.386,4.386,0,0,1,1.92.517,3.6,3.6,0,0,1,1.7,3.028V23.38H30.4ZM29.218,31.651V68.2H14.3A46.77,46.77,0,0,1,29.218,31.651ZM2.708,74.112c0-2.363,1.772-4.726,5.169-4.726v9.452C4.48,78.838,2.708,76.475,2.708,74.112Zm6.425-4.726H11.2v9.452H9.132ZM16.369,80.02H29.218V99.589h-.886A45.653,45.653,0,0,1,16.369,80.02ZM94.351,99.589h-.886V80.02h12.849A45.653,45.653,0,0,1,94.351,99.589Zm14.917-20.751h-15.8V69.386h15.729v9.452Zm1.182-.369V69.755l8.788,4.357Z" transform="translate(-1.6 -15.7)" fill="#111"/>
      </g>
      <g id="Group_99" data-name="Group 99" transform="translate(42.757 88.098)">
        <path id="Path_84" data-name="Path 84" d="M75.082,135.591a.635.635,0,0,0-.591-.591h-14.4a.591.591,0,1,0,0,1.182H74.565A.527.527,0,0,0,75.082,135.591Z" transform="translate(-59.5 -135)" fill="#111"/>
      </g>
      <g id="Group_100" data-name="Group 100" transform="translate(59.52 88.098)">
        <path id="Path_85" data-name="Path 85" d="M85.745,135.591a.635.635,0,0,0-.591-.591H82.791a.591.591,0,1,0,0,1.182h2.363A.582.582,0,0,0,85.745,135.591Z" transform="translate(-82.2 -135)" fill="#111"/>
      </g>
      <g id="Group_101" data-name="Group 101" transform="translate(63.877 88.098)">
        <path id="Path_86" data-name="Path 86" d="M88.691,136.182h1.551a.591.591,0,1,0,0-1.182H88.691a.635.635,0,0,0-.591.591A.582.582,0,0,0,88.691,136.182Z" transform="translate(-88.1 -135)" fill="#111"/>
      </g>
      <g id="Group_102" data-name="Group 102" transform="translate(61.145 91.052)">
        <path id="Path_87" data-name="Path 87" d="M99.391,139h-14.4a.591.591,0,1,0,0,1.182H99.465a.635.635,0,0,0,.591-.591A.6.6,0,0,0,99.391,139Z" transform="translate(-84.4 -139)" fill="#111"/>
      </g>
      <g id="Group_103" data-name="Group 103" transform="translate(56.418 91.052)">
        <path id="Path_88" data-name="Path 88" d="M80.954,139H78.591a.591.591,0,1,0,0,1.182h2.363a.635.635,0,0,0,.591-.591A.543.543,0,0,0,80.954,139Z" transform="translate(-78 -139)" fill="#111"/>
      </g>
      <g id="Group_104" data-name="Group 104" transform="translate(52.874 91.052)">
        <path id="Path_89" data-name="Path 89" d="M75.342,139H73.791a.591.591,0,1,0,0,1.182h1.551a.635.635,0,0,0,.591-.591A.582.582,0,0,0,75.342,139Z" transform="translate(-73.2 -139)" fill="#111"/>
      </g>
      <g id="Group_105" data-name="Group 105" transform="translate(39.065 17.723)">
        <path id="Path_90" data-name="Path 90" d="M54.5,57.423h0c0,.074,0,.074.074.074,0,.074.074.074.074.148h0l.148.148h.074c.074,0,.148.074.222.074H95.337a.635.635,0,0,0,.591-.591V40.291a.635.635,0,0,0-.591-.591H55.091a.635.635,0,0,0-.591.591V57.275h0Zm1.625-.812,7.385-12.775,5.538,9.674a.607.607,0,0,0,.443.3.67.67,0,0,0,.517-.222l5.317-6.72L83,56.685H56.125Zm38.548-15.8V56.537H84.481L75.768,45.46a.631.631,0,0,0-.96,0l-5.169,6.646-5.612-9.748a.621.621,0,0,0-1.034,0L55.682,54.986V40.808Z" transform="translate(-54.5 -39.7)" fill="#111"/>
      </g>
      <g id="Group_106" data-name="Group 106" transform="translate(68.603 20.086)">
        <path id="Path_91" data-name="Path 91" d="M98.414,50.728A3.914,3.914,0,1,0,94.5,46.814,3.94,3.94,0,0,0,98.414,50.728Zm0-6.646a2.732,2.732,0,1,1-2.732,2.732A2.774,2.774,0,0,1,98.414,44.082Z" transform="translate(-94.5 -42.9)" fill="#111"/>
      </g>
      <g id="Group_107" data-name="Group 107" transform="translate(33.674 70.301)">
        <path id="Path_92" data-name="Path 92" d="M94.978,110.9H51.557a4.357,4.357,0,1,0,0,8.714h43.5a4.357,4.357,0,1,0-.074-8.714Zm0,7.532H51.557a3.2,3.2,0,0,1-3.175-3.175,3.152,3.152,0,0,1,3.175-3.175h43.5a3.2,3.2,0,0,1,3.175,3.175A3.263,3.263,0,0,1,94.978,118.432Z" transform="translate(-47.2 -110.9)" fill="#111"/>
      </g>
      <g id="Group_108" data-name="Group 108" transform="translate(31.532 2.437)">
        <path id="Path_93" data-name="Path 93" d="M46.294,19a1.994,1.994,0,1,0,1.994,1.994A1.986,1.986,0,0,0,46.294,19Zm0,2.806a.812.812,0,1,1,.812-.812A.82.82,0,0,1,46.294,21.806Z" transform="translate(-44.3 -19)" fill="#111"/>
      </g>
      <g id="Group_109" data-name="Group 109" transform="translate(36.48 2.437)">
        <path id="Path_94" data-name="Path 94" d="M52.994,19a1.994,1.994,0,1,0,1.994,1.994A2.034,2.034,0,0,0,52.994,19Zm0,2.806a.812.812,0,1,1,.812-.812A.82.82,0,0,1,52.994,21.806Z" transform="translate(-51 -19)" fill="#111"/>
      </g>
      <g id="Group_110" data-name="Group 110" transform="translate(41.354 2.437)">
        <path id="Path_95" data-name="Path 95" d="M59.594,19a1.994,1.994,0,1,0,1.994,1.994A1.986,1.986,0,0,0,59.594,19Zm0,2.806a.812.812,0,1,1,.812-.812A.82.82,0,0,1,59.594,21.806Z" transform="translate(-57.6 -19)" fill="#111"/>
      </g>
      <g id="Group_111" data-name="Group 111" transform="translate(47.335 2.437)">
        <path id="Path_96" data-name="Path 96" d="M104.321,19H67.694a1.994,1.994,0,0,0,0,3.988h36.628a1.994,1.994,0,0,0,0-3.988Zm0,2.806H67.694a.812.812,0,1,1,0-1.625h36.628a.812.812,0,0,1,0,1.625Z" transform="translate(-65.7 -19)" fill="#111"/>
      </g>
      <g id="Group_112" data-name="Group 112" transform="translate(36.628 44.972)">
        <path id="Path_97" data-name="Path 97" d="M53.858,86.569a5.36,5.36,0,0,0,8.2-4.578,5.2,5.2,0,0,0-.812-2.806A5.358,5.358,0,0,0,56.591,76.6,5.421,5.421,0,0,0,51.2,81.991,5.566,5.566,0,0,0,53.858,86.569Zm2.806-8.862A4.272,4.272,0,0,1,60.283,79.7a4.511,4.511,0,0,1,.591,2.215,4.207,4.207,0,0,1-4.209,4.209,4.511,4.511,0,0,1-2.215-.591,4.235,4.235,0,0,1,2.215-7.828Z" transform="translate(-51.2 -76.6)" fill="#111"/>
      </g>
      <g id="Group_113" data-name="Group 113" transform="translate(34.265 57.305)">
        <path id="Path_98" data-name="Path 98" d="M48.591,94.482h14.4a.591.591,0,1,0,0-1.182h-14.4a.635.635,0,0,0-.591.591A.582.582,0,0,0,48.591,94.482Z" transform="translate(-48 -93.3)" fill="#111"/>
      </g>
      <g id="Group_114" data-name="Group 114" transform="translate(34.265 60.48)">
        <path id="Path_99" data-name="Path 99" d="M48.591,98.782h12.48a.591.591,0,0,0,0-1.182H48.591a.635.635,0,0,0-.591.591A.582.582,0,0,0,48.591,98.782Z" transform="translate(-48 -97.6)" fill="#111"/>
      </g>
      <g id="Group_115" data-name="Group 115" transform="translate(34.265 63.581)">
        <path id="Path_100" data-name="Path 100" d="M48.591,102.982H56.64a.591.591,0,0,0,0-1.182H48.591a.635.635,0,0,0-.591.591A.582.582,0,0,0,48.591,102.982Z" transform="translate(-48 -101.8)" fill="#111"/>
      </g>
      <g id="Group_116" data-name="Group 116" transform="translate(54.351 44.971)">
        <path id="Path_101" data-name="Path 101" d="M75.2,81.916a5.449,5.449,0,0,0,2.585,4.652,5.36,5.36,0,0,0,8.2-4.578,5.2,5.2,0,0,0-.812-2.806A5.358,5.358,0,0,0,80.517,76.6,5.294,5.294,0,0,0,75.2,81.916Zm5.465-4.209A4.272,4.272,0,0,1,84.283,79.7a4.511,4.511,0,0,1,.591,2.215,4.207,4.207,0,0,1-4.209,4.209,4.511,4.511,0,0,1-2.215-.591,4.272,4.272,0,0,1-1.994-3.618A4.161,4.161,0,0,1,80.665,77.707Z" transform="translate(-75.2 -76.598)" fill="#111"/>
      </g>
      <g id="Group_117" data-name="Group 117" transform="translate(51.914 57.305)">
        <path id="Path_102" data-name="Path 102" d="M87.555,93.891a.635.635,0,0,0-.591-.591H72.491a.591.591,0,0,0,0,1.182h14.4A.651.651,0,0,0,87.555,93.891Z" transform="translate(-71.9 -93.3)" fill="#111"/>
      </g>
      <g id="Group_118" data-name="Group 118" transform="translate(51.914 60.406)">
        <path id="Path_103" data-name="Path 103" d="M85.562,98.091a.635.635,0,0,0-.591-.591H72.491a.591.591,0,1,0,0,1.182h12.48C85.34,98.755,85.562,98.46,85.562,98.091Z" transform="translate(-71.9 -97.5)" fill="#111"/>
      </g>
      <g id="Group_119" data-name="Group 119" transform="translate(51.914 63.581)">
        <path id="Path_104" data-name="Path 104" d="M72.491,101.8a.591.591,0,0,0,0,1.182H80.54a.591.591,0,0,0,0-1.182Z" transform="translate(-71.9 -101.8)" fill="#111"/>
      </g>
      <g id="Group_120" data-name="Group 120" transform="translate(72 44.971)">
        <path id="Path_105" data-name="Path 105" d="M99.1,81.916a5.449,5.449,0,0,0,2.585,4.652,5.36,5.36,0,0,0,8.2-4.578,5.2,5.2,0,0,0-.812-2.806,5.359,5.359,0,0,0-4.652-2.585A5.294,5.294,0,0,0,99.1,81.916Zm9.009-2.215a4.511,4.511,0,0,1,.591,2.215,4.207,4.207,0,0,1-4.209,4.209,4.511,4.511,0,0,1-2.215-.591,4.272,4.272,0,0,1-1.994-3.618,4.207,4.207,0,0,1,4.209-4.209A4.093,4.093,0,0,1,108.109,79.7Z" transform="translate(-99.1 -76.598)" fill="#111"/>
      </g>
      <g id="Group_121" data-name="Group 121" transform="translate(69.563 57.305)">
        <path id="Path_106" data-name="Path 106" d="M111.382,93.891a.635.635,0,0,0-.591-.591h-14.4a.591.591,0,0,0,0,1.182h14.4A.582.582,0,0,0,111.382,93.891Z" transform="translate(-95.8 -93.3)" fill="#111"/>
      </g>
      <g id="Group_122" data-name="Group 122" transform="translate(69.563 60.406)">
        <path id="Path_107" data-name="Path 107" d="M109.462,98.091a.635.635,0,0,0-.591-.591H96.391a.591.591,0,1,0,0,1.182h12.48C109.24,98.755,109.462,98.46,109.462,98.091Z" transform="translate(-95.8 -97.5)" fill="#111"/>
      </g>
      <g id="Group_123" data-name="Group 123" transform="translate(69.563 63.581)">
        <path id="Path_108" data-name="Path 108" d="M96.391,101.8a.591.591,0,0,0,0,1.182h8.049a.591.591,0,1,0,0-1.182Z" transform="translate(-95.8 -101.8)" fill="#111"/>
      </g>
      <g id="Group_124" data-name="Group 124" transform="translate(34.338 37.366)">
        <path id="Path_109" data-name="Path 109" d="M48.691,69.549h2.068a.591.591,0,1,0,0-1.182H49.282V66.891a.591.591,0,0,0-1.182,0v2.068A.582.582,0,0,0,48.691,69.549Z" transform="translate(-48.1 -66.3)" fill="#111"/>
      </g>
      <g id="Group_125" data-name="Group 125" transform="translate(34.338 28.431)">
        <path id="Path_110" data-name="Path 110" d="M48.691,59.812a.635.635,0,0,0,.591-.591V54.791a.591.591,0,1,0-1.182,0v4.431A.582.582,0,0,0,48.691,59.812Z" transform="translate(-48.1 -54.2)" fill="#111"/>
      </g>
      <g id="Group_126" data-name="Group 126" transform="translate(34.338 19.495)">
        <path id="Path_111" data-name="Path 111" d="M48.691,47.712a.635.635,0,0,0,.591-.591V42.691a.591.591,0,0,0-1.182,0v4.431A.582.582,0,0,0,48.691,47.712Z" transform="translate(-48.1 -42.1)" fill="#111"/>
      </g>
      <g id="Group_127" data-name="Group 127" transform="translate(34.338 12.923)">
        <path id="Path_112" data-name="Path 112" d="M48.691,36.449a.635.635,0,0,0,.591-.591V34.382h1.477a.591.591,0,1,0,0-1.182H48.691a.635.635,0,0,0-.591.591v2.068A.582.582,0,0,0,48.691,36.449Z" transform="translate(-48.1 -33.2)" fill="#111"/>
      </g>
      <g id="Group_128" data-name="Group 128" transform="translate(40.541 12.923)">
        <path id="Path_113" data-name="Path 113" d="M57.091,34.382h4.135a.591.591,0,1,0,0-1.182H57.091a.635.635,0,0,0-.591.591A.582.582,0,0,0,57.091,34.382Z" transform="translate(-56.5 -33.2)" fill="#111"/>
      </g>
      <g id="Group_129" data-name="Group 129" transform="translate(65.354 12.923)">
        <path id="Path_114" data-name="Path 114" d="M90.691,34.382h4.135a.591.591,0,1,0,0-1.182H90.691a.591.591,0,1,0,0,1.182Z" transform="translate(-90.1 -33.2)" fill="#111"/>
      </g>
      <g id="Group_130" data-name="Group 130" transform="translate(48.812 12.923)">
        <path id="Path_115" data-name="Path 115" d="M68.291,34.382h4.135a.591.591,0,0,0,0-1.182H68.291a.635.635,0,0,0-.591.591A.582.582,0,0,0,68.291,34.382Z" transform="translate(-67.7 -33.2)" fill="#111"/>
      </g>
      <g id="Group_131" data-name="Group 131" transform="translate(57.083 12.923)">
        <path id="Path_116" data-name="Path 116" d="M79.491,34.382h4.135a.591.591,0,0,0,0-1.182H79.491a.591.591,0,0,0,0,1.182Z" transform="translate(-78.9 -33.2)" fill="#111"/>
      </g>
      <g id="Group_132" data-name="Group 132" transform="translate(73.625 12.923)">
        <path id="Path_117" data-name="Path 117" d="M101.891,34.382h4.135a.591.591,0,1,0,0-1.182h-4.135a.591.591,0,1,0,0,1.182Z" transform="translate(-101.3 -33.2)" fill="#111"/>
      </g>
      <g id="Group_133" data-name="Group 133" transform="translate(81.895 12.923)">
        <path id="Path_118" data-name="Path 118" d="M113.091,34.382h1.477v1.477a.591.591,0,1,0,1.182,0V33.791a.635.635,0,0,0-.591-.591h-2.068a.591.591,0,1,0,0,1.182Z" transform="translate(-112.5 -33.2)" fill="#111"/>
      </g>
      <g id="Group_134" data-name="Group 134" transform="translate(83.963 28.357)">
        <path id="Path_119" data-name="Path 119" d="M115.891,54.1a.635.635,0,0,0-.591.591v4.431a.591.591,0,1,0,1.182,0V54.691A.582.582,0,0,0,115.891,54.1Z" transform="translate(-115.3 -54.1)" fill="#111"/>
      </g>
      <g id="Group_135" data-name="Group 135" transform="translate(83.963 19.422)">
        <path id="Path_120" data-name="Path 120" d="M116.482,42.591a.591.591,0,0,0-1.182,0v4.431a.591.591,0,0,0,1.182,0Z" transform="translate(-115.3 -42)" fill="#111"/>
      </g>
      <g id="Group_136" data-name="Group 136" transform="translate(81.895 37.292)">
        <path id="Path_121" data-name="Path 121" d="M113.091,69.523h2.068a.635.635,0,0,0,.591-.591V66.791a.591.591,0,1,0-1.182,0v1.477h-1.477a.635.635,0,0,0-.591.591A.651.651,0,0,0,113.091,69.523Z" transform="translate(-112.5 -66.2)" fill="#111"/>
      </g>
      <g id="Group_137" data-name="Group 137" transform="translate(40.541 39.36)">
        <path id="Path_122" data-name="Path 122" d="M57.091,69a.591.591,0,0,0,0,1.182h4.135a.591.591,0,1,0,0-1.182Z" transform="translate(-56.5 -69)" fill="#111"/>
      </g>
      <g id="Group_138" data-name="Group 138" transform="translate(73.625 39.434)">
        <path id="Path_123" data-name="Path 123" d="M106.026,70.282a.591.591,0,1,0,0-1.182h-4.135a.591.591,0,0,0,0,1.182Z" transform="translate(-101.3 -69.1)" fill="#111"/>
      </g>
      <g id="Group_139" data-name="Group 139" transform="translate(48.812 39.434)">
        <path id="Path_124" data-name="Path 124" d="M73.017,69.691a.635.635,0,0,0-.591-.591H68.291a.591.591,0,0,0,0,1.182h4.135A.635.635,0,0,0,73.017,69.691Z" transform="translate(-67.7 -69.1)" fill="#111"/>
      </g>
      <g id="Group_140" data-name="Group 140" transform="translate(65.354 39.434)">
        <path id="Path_125" data-name="Path 125" d="M95.417,69.691a.635.635,0,0,0-.591-.591H90.691a.591.591,0,1,0,0,1.182h4.135A.582.582,0,0,0,95.417,69.691Z" transform="translate(-90.1 -69.1)" fill="#111"/>
      </g>
      <g id="Group_141" data-name="Group 141" transform="translate(57.083 39.434)">
        <path id="Path_126" data-name="Path 126" d="M83.626,70.282a.591.591,0,1,0,0-1.182H79.491a.591.591,0,0,0,0,1.182Z" transform="translate(-78.9 -69.1)" fill="#111"/>
      </g>
    </g>
  </g>
</svg>
