<svg id="Group_3" data-name="Group 3" xmlns="http://www.w3.org/2000/svg" width="224.551" height="147.055" viewBox="0 0 224.551 147.055">
  <g id="Layer_15" transform="translate(66.319 0)">
    <g id="Main" transform="translate(0 0)">
      <path id="Combined_Shape" data-name="Combined Shape" d="M91.228,85.516l-.007,0,0,0-59-22.216L.617,81.245l.007-.007-.012.007a.419.419,0,0,1-.559-.575L11.459,60.1a.474.474,0,0,1,.186-.193L21,54.442a.421.421,0,0,1,.581.567L14.43,67.951,32.455,57.729,79.021,75.295,64.561,48.965a.421.421,0,0,1,.583-.567L74.5,53.86a.48.48,0,0,1,.186.191l17.1,30.89a.418.418,0,0,1-.365.622A.414.414,0,0,1,91.228,85.516ZM14.042,56.088a.423.423,0,0,1-.078-.519L44.441.185a.345.345,0,0,1,.611,0l27.04,49.071a.421.421,0,0,1-.581.567l-3.5-2.042-19-10.91L23.868,50.445a.506.506,0,0,1-.092.074l-9.212,5.612a.422.422,0,0,1-.522-.044ZM44.471,13.224,27.948,43.107,48.781,31.3l9.12,5.421L45.07,13.224a.343.343,0,0,0-.3-.179A.339.339,0,0,0,44.471,13.224Z" transform="translate(0 0)" fill="#fff"/>
    </g>
  </g>
  <g id="Group" transform="translate(0 100.786)">
    <g id="Layer_12" transform="translate(0.027 0)">
      <path id="Combined_Shape-2" data-name="Combined Shape" d="M147.5,11.723c0-7,5.369-11.723,12.3-11.723,6.116,0,9.107,3.466,10.466,6.592l-5.912,2.753a4.854,4.854,0,0,0-4.554-3.3,5.384,5.384,0,0,0-5.335,5.674,5.374,5.374,0,0,0,5.335,5.663,4.853,4.853,0,0,0,4.554-3.293l5.912,2.718A10.775,10.775,0,0,1,159.8,23.437h-.014C152.875,23.437,147.5,18.682,147.5,11.723ZM98.718,23.041,90.359,10.878V23.041H83.5V.387h7.068L98.447,11.8V.387h6.863V23.041Zm-33.819,0L56.54,10.878V23.041H49.677V.387h7.067L64.627,11.8V.387h6.864V23.041Zm49.951,0L123.209.383h8.631L140.2,23.035h-7.441l-.884-2.922h-8.7l-.884,2.922H114.85ZM124.942,14.4h5.165l-2.583-7.983Zm82.331,8.631,0-22.663h17.191V6.082h-10.33v2.65h10.1v5.709h-10.1v2.886h10.327v5.709Zm-26.528,0V.373h6.864V17.058h8.609v5.978Zm-173.885,0H0V.373H12.094a8.211,8.211,0,0,1,6.065,2.3,7.772,7.772,0,0,1,2.09,5.483,7.414,7.414,0,0,1-2.09,5.4,8.355,8.355,0,0,1-6.065,2.211H6.862v7.271h0Zm0-12.978h4.349a1.989,1.989,0,1,0,0-3.975H6.862Zm23.956,12.97V.373h6.864V23.027Z" fill="#fff"/>
    </g>
    <g id="Layer_16" transform="translate(0 38.739)">
      <path id="Combined_Shape-3" data-name="Combined Shape" d="M99.742,7.529a3.615,3.615,0,0,1-3.675-3.762A3.609,3.609,0,0,1,99.742.016a3.446,3.446,0,0,1,2.73,1.24l-.467.333A2.957,2.957,0,0,0,99.74.575a3.006,3.006,0,0,0-3.022,3.188,3.014,3.014,0,0,0,3.022,3.2,3.076,3.076,0,0,0,2.132-.881V4.338H99.135V3.783h3.359v2.54A3.661,3.661,0,0,1,99.778,7.53ZM50.229,6.343l.4-.451a2.945,2.945,0,0,0,2.265,1.053c1.491,0,1.915-.825,1.915-1.446,0-1.021-.968-1.3-1.989-1.586-1.133-.315-2.361-.64-2.361-1.98C50.457.75,51.523,0,52.839,0A3.121,3.121,0,0,1,55.3,1.021l-.412.453A2.6,2.6,0,0,0,52.807.569c-.968,0-1.7.555-1.7,1.339,0,.858.907,1.107,1.892,1.359,1.175.335,2.458.707,2.458,2.175,0,.936-.621,2.054-2.578,2.054A3.331,3.331,0,0,1,50.229,6.343Zm169.2,1.044V.136h2.979a1.789,1.789,0,0,1,2,1.849,1.653,1.653,0,0,1-1.27,1.663,1.812,1.812,0,0,1,1.413,1.783,1.874,1.874,0,0,1-2.077,1.957Zm.618-.564h2.329A1.374,1.374,0,0,0,223.9,5.387a1.415,1.415,0,0,0-1.522-1.434h-2.329Zm0-3.436h2.284a1.3,1.3,0,0,0,1.426-1.339A1.3,1.3,0,0,0,222.33.7h-2.284ZM198.453,5.6h-3.862l-.729,1.783h-.7L196.134.139h.773l2.969,7.247-.7,0Zm-3.665-.563h3.468l-1.741-4.3ZM169.942,7.387V.136h.621V6.823h3.511v.564Zm-47.388,0V.139h.63l4.547,6.175V.136h.618V7.385h-.607l-4.567-6.249V7.387Zm-96.544,0V.136h4.6V.7h-3.98V3.387h3.906v.566H26.628v2.87h3.98v.564Zm49.425,0V.136h.62V7.385ZM0,7.385V.136H2.315A3.618,3.618,0,0,1,4.992,1.2,3.648,3.648,0,0,1,5.981,3.76a3.648,3.648,0,0,1-.988,2.556A3.615,3.615,0,0,1,2.315,7.385Zm.62-.568,1.695.006a2.945,2.945,0,0,0,2.224-.891,3.145,3.145,0,0,0,.789-2.165A2.879,2.879,0,0,0,2.315.7H.62Z" transform="translate(0 0)" fill="#fff"/>
    </g>
  </g>
</svg>
